<svg width="25" height="25" viewBox="0 0 25 25" fill="none" xmlns="http://www.w3.org/2000/svg">
<path d="M13.2359 18.7238L17.1164 14.8434C17.3545 14.6053 17.3545 14.2192 17.1164 13.9811C16.8783 13.7429 16.4922 13.7429 16.2541 13.9811L13.4145 16.8206V6.70732C13.4145 6.37056 13.1415 6.09756 12.8048 6.09756C12.468 6.09756 12.195 6.37056 12.195 6.70732V16.8206L9.35546 13.9811C9.11734 13.7429 8.73126 13.7429 8.49314 13.9811C8.25501 14.2192 8.25501 14.6053 8.49314 14.8434L12.3736 18.7238C12.6117 18.962 12.9978 18.962 13.2359 18.7238Z" fill="white"/>
<path fill-rule="evenodd" clip-rule="evenodd" d="M25 12.5C25 19.4036 19.4036 25 12.5 25C5.59644 25 0 19.4036 0 12.5C0 5.59644 5.59644 0 12.5 0C19.4036 0 25 5.59644 25 12.5ZM23.7805 12.5C23.7805 18.73 18.73 23.7805 12.5 23.7805C6.26996 23.7805 1.21951 18.73 1.21951 12.5C1.21951 6.26996 6.26996 1.21951 12.5 1.21951C18.73 1.21951 23.7805 6.26996 23.7805 12.5Z" fill="white"/>
</svg>