<svg width="220" height="30" viewBox="0 0 220 30" fill="none" xmlns="http://www.w3.org/2000/svg">
<path d="M170.108 8.11592H167.233L167.246 12.9973H166.188V7.20763H170.115L170.108 8.11592Z" fill="#1D1D20"/>
<path d="M174.578 10.1221C174.701 10.017 174.797 9.88517 174.861 9.73673C174.924 9.58828 174.953 9.42725 174.944 9.26606C174.953 9.10582 174.924 8.94572 174.861 8.79834C174.797 8.65095 174.701 8.52029 174.578 8.41657C174.269 8.19448 173.892 8.08806 173.513 8.11596H172.258V10.4423H173.519C173.898 10.4693 174.274 10.3655 174.585 10.1482L174.578 10.1221ZM174.879 7.48209C175.229 7.62807 175.527 7.8763 175.735 8.19437C175.939 8.52346 176.044 8.90485 176.035 9.29218C176.042 9.67928 175.937 10.0602 175.735 10.39C175.529 10.7097 175.23 10.9584 174.879 11.1023C174.466 11.2777 174.02 11.3624 173.572 11.3506H172.265V13.0234H171.187V7.23381H173.572C174.02 7.22608 174.465 7.31057 174.879 7.48209Z" fill="#1D1D20"/>
<path d="M182.054 7.20763L179.544 11.8799C179.359 12.2495 179.088 12.5698 178.754 12.8143C178.459 13.0143 178.11 13.1212 177.754 13.1214C177.461 13.1212 177.171 13.0588 176.904 12.9385L177.166 12.0955C177.347 12.1593 177.536 12.1967 177.728 12.2066C177.907 12.2018 178.082 12.1489 178.233 12.0535C178.385 11.9581 178.508 11.8236 178.59 11.6642L178.682 11.527L176.375 7.20763H177.525L179.237 10.6056L180.995 7.20763H182.054Z" fill="#1D1D20"/>
<path d="M188.092 7.20763V12.9973H187.033V8.11592H184.034V12.9973H182.975V7.20763H188.092Z" fill="#1D1D20"/>
<path d="M195.018 7.20763V12.9973H193.953V8.11592H190.954V12.9973H189.895V7.20763H195.018Z" fill="#1D1D20"/>
<path d="M200.311 10.8147L199.22 8.28586L198.135 10.8147H200.311ZM200.664 11.6577H197.769L197.201 12.9646H196.096L198.71 7.17497H199.769L202.383 12.9646H201.226L200.664 11.6577Z" fill="#1D1D20"/>
<path d="M168.311 19.7214H167.233V22.1588H166.175V16.3691H167.233V18.7935H168.344L170.004 16.3691H171.147L169.167 19.1725L171.219 22.1588H170.004L168.311 19.7214Z" fill="#1D1D20"/>
<path d="M175.826 21.0413C176.134 20.8709 176.388 20.6172 176.558 20.3095C176.73 19.9877 176.819 19.6286 176.819 19.2639C176.819 18.8993 176.73 18.5402 176.558 18.2184C176.389 17.9111 176.135 17.6591 175.826 17.4931C175.507 17.3215 175.15 17.2317 174.787 17.2317C174.425 17.2317 174.068 17.3215 173.748 17.4931C173.439 17.6591 173.185 17.9111 173.016 18.2184C172.845 18.5402 172.755 18.8993 172.755 19.2639C172.755 19.6286 172.845 19.9877 173.016 20.3095C173.187 20.6172 173.44 20.8709 173.748 21.0413C174.068 21.2129 174.425 21.3027 174.787 21.3027C175.15 21.3027 175.507 21.2129 175.826 21.0413ZM173.212 21.8582C172.748 21.6135 172.361 21.2448 172.095 20.7931C171.821 20.3306 171.681 19.8013 171.69 19.2639C171.678 18.7302 171.814 18.2036 172.083 17.7423C172.351 17.281 172.742 16.903 173.212 16.6501C173.707 16.4008 174.253 16.2709 174.807 16.2709C175.361 16.2709 175.907 16.4008 176.401 16.6501C176.864 16.8967 177.25 17.265 177.519 17.7153C177.784 18.1812 177.923 18.7081 177.923 19.2443C177.923 19.7805 177.784 20.3075 177.519 20.7734C177.252 21.2252 176.865 21.594 176.401 21.8386C175.908 22.092 175.361 22.2241 174.807 22.2241C174.252 22.2241 173.706 22.092 173.212 21.8386" fill="#1D1D20"/>
<path d="M184.576 22.1588L184.569 18.323L182.668 21.4988H182.191L180.283 18.3753V22.1588H179.27V16.3691H180.152L182.446 20.1984L184.713 16.3691H185.589L185.602 22.1588H184.576Z" fill="#1D1D20"/>
<path d="M192.515 16.3691V22.1588H191.457V17.284H188.458V22.1588H187.399V16.3691H192.515Z" fill="#1D1D20"/>
<path d="M197.795 19.9762L196.704 17.4473L195.619 19.9762H197.795ZM198.148 20.8192H195.253L194.685 22.1261H193.574L196.188 16.3365H197.247L199.86 22.1261H198.736L198.148 20.8192Z" fill="#1D1D20"/>
<path d="M206.049 16.3691V22.1588H204.97V19.6822H201.978V22.1588H200.899V16.3691H201.978V18.7608H204.97V16.3691H206.049Z" fill="#1D1D20"/>
<path d="M207.839 16.3691H208.898V20.4794L212.008 16.3691H213.008V22.1588H211.949V18.0616L208.839 22.1588H207.839V16.3691Z" fill="#1D1D20"/>
<path d="M216.256 15.6699C216.128 15.5595 216.027 15.4216 215.96 15.2666C215.893 15.1115 215.863 14.9433 215.87 14.7747H216.648C216.645 14.8642 216.661 14.9532 216.696 15.0356C216.731 15.118 216.784 15.1918 216.85 15.2517C217.01 15.37 217.207 15.4279 217.406 15.4151C217.604 15.4241 217.8 15.3666 217.961 15.2517C218.03 15.1933 218.085 15.12 218.121 15.0373C218.157 14.9547 218.174 14.8649 218.17 14.7747H218.915C218.922 14.943 218.891 15.1106 218.823 15.2647C218.755 15.4188 218.652 15.5553 218.523 15.6634C218.198 15.8939 217.803 16.0047 217.406 15.977C217.007 16.0054 216.611 15.8971 216.282 15.6699H216.256ZM214.831 16.3626H215.89V20.4728L219 16.3626H220V22.1522H218.941V18.0551L215.831 22.1522H214.831V16.3626Z" fill="#1D1D20"/>
<path d="M64.4507 16.2384L62.059 10.4423L59.6673 16.2188L64.4507 16.2384ZM65.5485 18.8915H58.5434L57.2365 22.1196H53.6555L60.3796 7.03122H63.8299L70.5736 22.1196H66.9142L65.5485 18.8915Z" fill="#1D1D20"/>
<path d="M86.3415 7.03122V22.1196H82.8912V9.88029H77.7224L77.6113 13.0234C77.5827 14.7772 77.41 16.5256 77.0951 18.2511C76.9132 19.3718 76.4425 20.4258 75.7293 21.3093C75.3867 21.6726 74.9688 21.9568 74.5049 22.1419C74.041 22.327 73.5423 22.4086 73.0436 22.381C72.4614 22.3647 71.8828 22.2836 71.3185 22.1392L71.5341 19.1855C71.7457 19.2506 71.9663 19.2815 72.1876 19.277C73.0175 19.277 73.5991 18.7804 73.9323 17.8002C74.3446 16.2918 74.5642 14.7373 74.5858 13.1737L74.8014 7.0508L86.3415 7.03122Z" fill="#1D1D20"/>
<path d="M98.5742 18.8653C98.84 18.6164 99.0466 18.3112 99.1789 17.9719C99.3112 17.6327 99.3659 17.2681 99.3388 16.905C99.3388 15.3454 98.376 14.5634 96.4505 14.559H93.3008V19.5123H96.4505C97.2146 19.5621 97.9703 19.3296 98.5742 18.8588V18.8653ZM101.378 13.2129C101.884 13.6674 102.281 14.2314 102.537 14.8622C102.792 15.4929 102.901 16.1736 102.854 16.8527C102.903 17.588 102.781 18.3246 102.498 19.0049C102.215 19.6852 101.777 20.2905 101.221 20.7734C100.136 21.6752 98.6069 22.1196 96.6465 22.1196H89.8309V7.03122H93.3008V11.9909H97.1366C98.6505 11.8916 100.151 12.3263 101.378 13.2195" fill="#1D1D20"/>
<path d="M109.16 10.5664C108.889 10.831 108.678 11.1516 108.542 11.506C108.407 11.8603 108.35 12.2399 108.376 12.6183C108.352 12.9898 108.407 13.3621 108.536 13.7111C108.666 14.0601 108.867 14.3779 109.128 14.644C109.749 15.1583 110.545 15.4134 111.349 15.3563H114.408V9.88029H111.441C110.624 9.82378 109.816 10.0678 109.167 10.5664H109.16ZM117.864 7.03122V22.1196H114.414V18.1139H111.225L108.553 22.1196H104.867L108.017 17.5453C107.056 17.1775 106.234 16.5197 105.664 15.6634C105.102 14.7541 104.818 13.7001 104.847 12.6313C104.82 11.5738 105.097 10.5306 105.645 9.62543C106.191 8.76561 106.977 8.08423 107.906 7.66505C108.995 7.20027 110.172 6.97732 111.356 7.01159L117.864 7.03122Z" fill="#1D1D20"/>
<path d="M135.188 7.03119V22.1196H131.692V15.9378H124.843V22.1196H121.347V7.03119H124.843V12.9842H131.692V7.03119H135.188Z" fill="#1D1D20"/>
<path d="M141.735 21.3812C140.525 20.7365 139.513 19.7741 138.808 18.5974C138.11 17.373 137.743 15.988 137.743 14.5787C137.743 13.1694 138.11 11.7843 138.808 10.5599C139.511 9.38174 140.523 8.41891 141.735 7.77615C143.028 7.09781 144.471 6.75412 145.93 6.77638C147.148 6.75871 148.356 6.99228 149.479 7.4625C150.505 7.90058 151.416 8.57177 152.138 9.42288L149.897 11.4943C149.438 10.9323 148.859 10.4811 148.201 10.1745C147.544 9.86781 146.826 9.71367 146.1 9.72348C145.229 9.70683 144.368 9.9186 143.604 10.3377C142.883 10.7369 142.287 11.3299 141.886 12.0498C141.482 12.8223 141.271 13.6809 141.271 14.5525C141.271 15.4241 141.482 16.2828 141.886 17.0553C142.287 17.7752 142.883 18.3682 143.604 18.7673C144.37 19.1834 145.229 19.3949 146.1 19.3816C146.827 19.3895 147.547 19.2325 148.204 18.9224C148.862 18.6123 149.441 18.1571 149.897 17.5911L152.138 19.6626C151.423 20.5364 150.506 21.2228 149.466 21.6621C148.342 22.137 147.131 22.3728 145.911 22.3548C144.457 22.3755 143.022 22.0318 141.735 21.355" fill="#1D1D20"/>
<path d="M28.4581 0.00652103V0H21.5118L8.68445 29.1835H15.6373L28.4581 0.00652103Z" fill="#EF402F"/>
<path d="M19.7671 0.00652103V0H12.8209L0 29.1769H6.94627L19.7671 0.00652103Z" fill="#EF402F"/>
<path d="M29.3208 1.97342L25.864 9.84107L29.36 17.8002H22.368L20.1135 22.9233H31.6079L34.3524 29.1769H41.2791L29.3208 1.97342Z" fill="#EF402F"/>
</svg>
