<svg width="279" height="70" viewBox="0 0 279 70" fill="none" xmlns="http://www.w3.org/2000/svg">
<g style="mix-blend-mode:multiply">
<path d="M70.458 27.6746C70.458 27.7559 70.458 27.8371 70.458 27.9184C70.4874 27.8398 70.4874 27.7532 70.458 27.6746Z" fill="#FFF9CA"/>
</g>
<g style="mix-blend-mode:multiply">
<path d="M66.3644 29.7152C65.2505 29.7152 63.8552 29.7152 62.155 29.8091C63.0813 29.7621 64.6877 29.6918 66.3644 29.7152Z" fill="#FFF9CA"/>
</g>
<g style="mix-blend-mode:multiply">
<path d="M68.6037 27.1364C68.478 26.9179 68.3683 26.6906 68.2754 26.4563C68.3683 26.6906 68.478 26.9179 68.6037 27.1364Z" fill="#FFF9CA"/>
</g>
<g style="mix-blend-mode:multiply">
<path d="M67.6448 21.1692C67.7051 20.6778 67.8031 20.1917 67.9379 19.7152C67.8031 20.1917 67.7051 20.6778 67.6448 21.1692Z" fill="#FFF9CA"/>
</g>
<g style="mix-blend-mode:multiply">
<path d="M49.0841 30.9464C44.913 31.616 40.7977 32.5959 36.7725 33.8778C40.7967 32.5921 44.9123 31.6122 49.0841 30.9464Z" fill="#FFF9CA"/>
</g>
<g style="mix-blend-mode:multiply">
<path d="M45.1569 44.9827C45.0865 45.1937 45.0162 45.393 44.9341 45.5924C45.0162 45.393 45.0865 45.1937 45.1569 44.9827Z" fill="#FFF9CA"/>
</g>
<g style="mix-blend-mode:multiply">
<path d="M44.757 45.9444C44.6749 46.0968 44.6045 46.2492 44.5107 46.4017C44.6045 46.2492 44.6749 46.0968 44.757 45.9444Z" fill="#FFF9CA"/>
</g>
<g style="mix-blend-mode:multiply">
<path d="M44.2746 46.7645C44.1916 46.9019 44.1015 47.0349 44.0049 47.1631C44.1015 47.0349 44.1916 46.9019 44.2746 46.7645Z" fill="#FFF9CA"/>
</g>
<g style="mix-blend-mode:multiply">
<path d="M45.3656 43.8442C45.3308 44.157 45.272 44.4666 45.1897 44.7705C45.2738 44.4671 45.3326 44.1573 45.3656 43.8442Z" fill="#FFF9CA"/>
</g>
<path d="M37.3094 34.2306C34.6091 33.0605 31.8066 32.142 28.9375 31.4869C21.5017 33.5366 14.6162 37.2177 8.78159 42.2625C8.78159 42.2625 20.2255 11.7765 46.8304 19.3628C47.1822 19.4801 47.5457 19.6325 47.9326 19.7967C49.9618 20.2391 51.9626 20.8029 53.9243 21.4851C53.9243 21.4851 57.5591 21.9307 58.204 16.9239C58.6922 14.5102 59.9762 12.3302 61.8506 10.7329C55.8654 4.52119 47.6883 0.896321 39.0662 0.632726C30.4442 0.369131 22.0609 3.48774 15.7074 9.32227C9.3539 15.1568 5.53393 23.2446 5.0636 31.8578C4.59327 40.471 7.50988 48.9267 13.1903 55.4183C20.2255 50.6109 30.497 45.9091 45.4116 43.8102C45.7634 40.8085 43.8404 37.2675 37.3094 34.2306Z" fill="#FFF9CA"/>
<path d="M70.9274 19.3279C70.8219 18.6127 70.7164 17.9443 70.6226 17.3346C70.7164 17.9443 70.8219 18.6361 70.9274 19.3514V19.3279Z" fill="#9DC33B"/>
<path d="M70.9286 19.3505C70.8231 18.6353 70.7175 17.9435 70.6237 17.3338C70.6237 17.0054 70.5182 16.7123 70.4713 16.4192C70.4713 16.3019 70.4713 16.1964 70.3892 16.0791C69.5041 16.5841 68.8207 17.3794 68.4545 18.3304C68.2523 18.78 68.0914 19.247 67.9738 19.7257C67.839 20.2022 67.741 20.6882 67.6807 21.1797C67.6807 21.5432 67.5986 21.9066 67.5869 22.2819C67.5222 23.7102 67.7579 25.1362 68.2787 26.4678C68.3716 26.7021 68.4813 26.9294 68.607 27.1479C68.8691 27.6406 69.2234 28.0785 69.6505 28.4377C69.831 28.575 70.028 28.6893 70.2368 28.7777L70.4127 27.9569C70.4127 27.8749 70.4127 27.7928 70.4127 27.7107C70.8129 25.8771 71.0173 24.0062 71.0224 22.1294C71.0389 21.2021 71.0076 20.2746 70.9286 19.3505Z" fill="#CB842A"/>
<path d="M68.6045 27.1365C68.4788 26.918 68.3691 26.6907 68.2762 26.4564C67.7554 25.1248 67.5197 23.6988 67.5844 22.2704C67.5844 21.8952 67.5844 21.5317 67.6782 21.1682C67.7385 20.6768 67.8365 20.1907 67.9713 19.7143C68.0889 19.2355 68.2498 18.7685 68.452 18.319C68.8182 17.368 69.5016 16.5727 70.3867 16.0677C70.2812 15.5987 70.1288 15.1414 69.9998 14.6724H70.0584L71.4889 10.9672H68.1003C65.4269 9.31388 63.4101 9.61874 61.8507 10.7092C59.9763 12.3064 58.6922 14.4865 58.2041 16.9002C57.5592 21.9069 53.9243 21.4614 53.9243 21.4614C55.8066 22.1206 57.6538 22.876 59.4587 23.7244C62.0085 24.9168 64.4728 26.2841 66.8339 27.8165C67.385 28.1565 67.8775 28.4849 68.3113 28.7897C68.7452 29.0946 69.1438 29.3643 69.4839 29.6105L69.9294 29.9388C70.0467 29.5401 70.1405 29.1415 70.246 28.7663C70.0372 28.6778 69.8402 28.5636 69.6598 28.4263C69.2284 28.0681 68.8701 27.6302 68.6045 27.1365Z" fill="#F3991F"/>
<path d="M41.1795 49.5784L41.6368 49.3204L42.0823 49.0156L42.3755 48.7928L42.7624 48.4762L43.079 48.1948C43.1963 48.0893 43.3018 47.972 43.419 47.8548L43.6653 47.5616L43.9584 47.2099C44.0551 47.0817 44.1451 46.9486 44.2281 46.8112C44.313 46.6946 44.3913 46.5732 44.4626 46.4477C44.5564 46.2953 44.6268 46.1429 44.7088 45.9904L44.8847 45.6387C44.9668 45.4394 45.0371 45.24 45.1075 45.029C45.1778 44.8179 45.1661 44.8648 45.1896 44.7827C45.2718 44.4789 45.3306 44.1692 45.3655 43.8564C30.4508 45.9553 20.1325 50.6572 13.1441 55.4646C3.16585 62.3122 0 69.3826 0 69.3826C14.8795 49.5198 37.1343 49.8129 40.9215 49.7543L41.1795 49.5784Z" fill="#F7CF36"/>
<path d="M36.6316 33.9141H36.7371C40.7623 32.6322 44.8776 31.6524 49.0487 30.9828C42.3827 29.6399 35.4988 29.8283 28.9163 31.5339C31.7853 32.1891 34.5878 33.1075 37.2882 34.2776L36.6316 33.9141Z" fill="#CB842A"/>
<path d="M68.3123 28.849C67.8784 28.5442 67.386 28.2159 66.8349 27.8758C64.4737 26.3434 62.0094 24.9761 59.4596 23.7837C57.6547 22.9353 55.8075 22.1799 53.9253 21.5207C51.9636 20.8384 49.9628 20.2746 47.9336 19.8322C53.0165 22.2815 57.5729 25.6988 61.3474 29.8926H62.1565C63.8566 29.7988 65.252 29.7753 66.3659 29.7988C67.4831 29.7989 68.5992 29.8694 69.7076 30.0098H69.9187L69.4731 29.6815C69.1448 29.3884 68.8165 29.1187 68.3123 28.849Z" fill="#CB842A"/>
<path d="M69.8228 30.3257V30.4077C69.8228 30.4077 69.8111 30.3492 69.8228 30.3257Z" fill="#CB842A"/>
<path d="M66.3649 29.7164C64.6882 29.7164 63.0818 29.7164 62.1555 29.8102H61.3464C63.4456 32.0512 65.1362 34.6426 66.3414 37.4669C67.5933 35.6004 68.6131 33.5883 69.3783 31.4752C69.519 31.1117 69.6363 30.7365 69.7301 30.4316C69.725 30.4085 69.725 30.3845 69.7301 30.3613C69.8004 30.1151 69.8473 29.9392 69.8473 29.9157H69.6363C68.5499 29.7939 67.458 29.7274 66.3649 29.7164Z" fill="#F3991F"/>
<path d="M49.0834 30.9464C44.9079 31.6078 40.7884 32.5837 36.7601 33.866H36.6545L37.3346 34.1826C43.8656 37.2195 45.7886 40.7606 45.4368 43.7623C45.402 44.0635 45.3432 44.3615 45.261 44.6534C45.261 44.7355 45.261 44.8175 45.1789 44.8996C45.0968 44.9817 45.0382 45.31 44.9561 45.5093L44.7802 45.8611C44.6981 46.0135 44.6278 46.166 44.534 46.3184C44.4627 46.4438 44.3844 46.5652 44.2995 46.6819C44.2165 46.8193 44.1265 46.9523 44.0298 47.0805L43.7367 47.4323L43.4787 47.7254C43.3615 47.8427 43.2559 47.96 43.1387 48.0655L42.8221 48.3469L42.4351 48.6635L42.142 48.8862L41.6964 49.1911C41.5635 49.2723 41.4266 49.3467 41.2861 49.4139L41.1219 49.5194H42.1655C44.0097 49.4584 45.8494 49.2979 47.6764 49.0387H47.8288C49.7922 48.7428 51.729 48.2919 53.6211 47.6903C58.8296 45.6218 63.2895 42.0245 66.4135 37.3719C61.0047 34.3449 55.1582 32.1772 49.0834 30.9464Z" fill="#F3991F"/>
<path d="M61.3485 29.8575C57.574 25.6637 53.0176 22.2464 47.9347 19.7971C47.5478 19.633 47.1843 19.4806 46.8325 19.3633C20.2276 11.7887 8.78369 42.2629 8.78369 42.2629C14.6217 37.2167 21.5114 33.5355 28.9513 31.4873C35.5339 29.7818 42.4178 29.5934 49.0838 30.9362C55.1322 32.2326 60.9428 34.4595 66.3083 37.5376C66.3083 37.5376 66.3083 37.5376 66.3083 37.479C65.1101 34.6698 63.4318 32.0907 61.3485 29.8575Z" fill="#F7CF36"/>
<path d="M95.8053 39.8558C88.1811 39.8558 82.4458 33.7727 82.4458 26.2521C82.4458 18.7316 88.1811 12.6484 95.8053 12.6484C101.84 12.6484 106.755 16.5755 108.447 22.017H102.746C101.353 19.5957 98.8225 17.9701 95.8053 17.9701C91.1641 17.9701 87.7708 21.709 87.7708 26.2436C87.7708 30.7781 91.1641 34.517 95.8053 34.517C98.7884 34.517 101.318 32.9342 102.677 30.5557H108.413C106.712 35.9544 101.848 39.8473 95.8053 39.8473V39.8558Z" fill="#2B4E27"/>
<path d="M120.59 35.1672C122.633 35.1672 124.026 34.2603 124.556 33.2422H129.838C128.479 37.0923 124.855 39.8558 120.556 39.8558C115.086 39.8558 110.701 35.4325 110.701 29.9568C110.701 24.4811 115.077 20.0149 120.556 20.0149C126.035 20.0149 130.403 24.4383 130.403 29.9568C130.403 30.4872 130.326 31.3514 130.249 31.8476H115.752C116.547 33.8497 118.47 35.1758 120.582 35.1758L120.59 35.1672ZM115.761 27.8349H125.351C124.556 25.9099 122.633 24.7035 120.556 24.7035C118.479 24.7035 116.556 25.9099 115.761 27.8349Z" fill="#2B4E27"/>
<path d="M155.423 39.4711L153.722 28.5111L148.97 39.4711H143.952L139.269 28.5881L137.568 39.4711H132.508L135.448 20.2035H140.773L146.474 33.5762L152.132 20.2035H157.457L160.475 39.4711H155.415H155.423Z" fill="#2B4E27"/>
<path d="M172.534 35.1672C174.568 35.1672 175.97 34.2603 176.5 33.2422H181.782C180.423 37.0923 176.799 39.8558 172.5 39.8558C167.03 39.8558 162.653 35.4325 162.653 29.9568C162.653 24.4811 167.03 20.0149 172.5 20.0149C177.97 20.0149 182.355 24.4383 182.355 29.9568C182.355 30.4872 182.278 31.3514 182.201 31.8476H167.705C168.5 33.8497 170.423 35.1758 172.534 35.1758V35.1672ZM167.705 27.8349H177.295C176.5 25.9099 174.577 24.7035 172.5 24.7035C170.423 24.7035 168.5 25.9099 167.705 27.8349Z" fill="#2B4E27"/>
<path d="M204.87 20.2035V39.4711H199.853V27.57L190.682 39.4711H185.699V20.2035H190.682V31.9164L199.853 20.2035H204.87Z" fill="#2B4E27"/>
<path d="M197.475 17.4485H193.056L195.398 12.3493H200.526L197.475 17.4485Z" fill="#2B4E27"/>
<path d="M228.161 20.2035V39.4711H223.144V32.1816H214.349V39.4711H209.365V20.2035H214.349V27.493H223.144V20.2035H228.161Z" fill="#2B4E27"/>
<path d="M247.767 32.635C247.767 36.7932 244.485 39.4711 240.63 39.4711H232.63V20.2035H237.613V25.8332H240.63C244.477 25.8332 247.767 28.5111 247.767 32.635ZM242.938 32.635C242.938 31.3517 241.878 30.325 240.639 30.325H237.622V34.9366H240.639C241.887 34.9366 242.938 33.9526 242.938 32.635ZM255.315 20.2035V39.4711H250.331V20.2035H255.315Z" fill="#2B4E27"/>
<path d="M279 20.2035V39.4711H273.974V27.57L264.803 39.4711H259.82V20.2035H264.803V31.9164L273.974 20.2035H279Z" fill="#2B4E27"/>
<path d="M271.598 17.4485H267.188L269.521 12.3493H274.658L271.598 17.4485Z" fill="#2B4E27"/>
<path d="M203.956 47.5053C203.99 47.7192 203.092 48.0786 201.255 48.5919C199.417 49.0967 198.041 49.3534 197.118 49.3534C196.101 49.3534 195.186 49.1994 194.383 48.8828C193.579 48.5662 193.143 48.2497 193.083 47.916C192.955 47.1887 193.212 46.3674 193.853 45.4519C193.417 45.1781 192.895 45.0412 192.289 45.0412C191.212 45.0412 190.1 45.3835 188.947 46.0679C188.596 46.2818 188.16 46.7866 187.656 47.5652C187.237 48.2069 186.861 48.532 186.502 48.532C186.032 48.532 185.758 48.3267 185.69 47.916C185.596 47.3855 186.784 45.7514 189.263 43.0135C189.853 42.3462 190.571 41.6788 191.434 41.0029C192.297 40.327 192.827 39.9933 193.049 39.9933C193.169 39.9933 193.306 40.0703 193.468 40.2243C193.63 40.3783 193.725 40.5409 193.759 40.6949C193.776 40.7719 193.246 41.2339 192.186 42.0724C191.4 42.697 190.844 43.3215 190.519 43.9547C190.682 43.9718 191.092 43.9375 191.759 43.8349C192.425 43.7408 192.938 43.698 193.289 43.7151C193.921 43.775 194.442 43.9974 194.844 44.391C195.263 43.9803 195.896 43.3814 196.759 42.6028C197.921 41.6617 198.691 41.1911 199.067 41.1911C199.28 41.1911 199.494 41.2767 199.708 41.4392C199.921 41.6018 200.041 41.7729 200.075 41.9526C200.161 42.4574 199.605 43.1846 198.4 44.1258C197.468 44.853 196.631 45.4006 195.87 45.7685C195.015 46.7096 194.613 47.2829 194.648 47.4968C194.682 47.7107 194.93 47.8989 195.391 48.07C195.853 48.2326 196.366 48.3181 196.93 48.3181C198.024 48.3181 199.366 48.1042 200.947 47.6764C202.537 47.2486 203.272 47.0347 203.152 47.0347C203.622 47.0347 203.887 47.1887 203.939 47.5053H203.956Z" fill="#F4CD44"/>
<path d="M216.529 44.81C216.581 45.1266 216.153 45.3918 215.247 45.6143C214.341 45.8367 213.367 45.9479 212.332 45.9479C211.649 45.9479 210.931 45.8025 210.17 45.5116C208.956 46.9832 208.127 47.9072 207.666 48.3008C206.666 49.182 205.597 49.6184 204.469 49.6184C204.101 49.6184 203.742 49.4558 203.418 49.1307C203.084 48.8056 202.896 48.5061 202.853 48.2323C202.742 47.5906 202.905 46.7864 203.341 45.8367C203.777 44.887 204.418 43.9886 205.247 43.1502C205.913 42.4828 206.777 41.9267 207.828 41.4732C208.666 41.1225 209.298 40.9428 209.726 40.9428C209.982 40.9428 210.29 41.0882 210.649 41.3791C211.016 41.67 211.23 42.0208 211.298 42.4315C211.367 42.8422 211.247 43.5352 210.931 44.5191C211.23 44.656 211.734 44.7929 212.435 44.9298C212.965 44.9298 213.657 44.8699 214.512 44.7416C215.367 44.6132 215.854 44.5533 215.974 44.5533C216.307 44.5533 216.486 44.6303 216.512 44.7843L216.529 44.81ZM208.589 45.195C208.623 44.9212 208.563 44.5961 208.418 44.2282C208.238 43.7576 208.025 43.4582 207.794 43.3213C206.939 43.7149 206.272 44.2111 205.768 44.8186C204.623 46.2303 204.118 47.2741 204.238 47.9585C204.289 48.2751 204.426 48.4291 204.64 48.4291C205.554 48.4291 206.879 47.3511 208.589 45.2036V45.195Z" fill="#F4CD44"/>
<path d="M238.018 29.1614C238.086 29.555 237.582 30.3678 236.505 31.5998C235.283 32.9858 233.787 34.3462 232.026 35.6809C230.889 36.5451 229.103 37.5632 226.667 38.7353C223.24 40.3781 221.385 41.3192 221.103 41.5502C220.821 41.7812 220.385 42.1406 219.804 42.6026C219.094 43.2443 218.504 43.8859 218.026 44.5105C216.632 46.3671 215.974 47.5136 216.043 47.9414C216.094 48.2323 216.256 48.3777 216.53 48.3777C217.017 48.3777 217.735 48.0783 218.684 47.4708C219.504 46.9061 220.333 46.3329 221.171 45.7682C221.385 45.4345 221.795 44.9896 222.402 44.4164C223.359 43.5009 224.086 43.0389 224.59 43.0389C224.983 43.0389 225.214 43.2443 225.282 43.6549C225.419 44.4164 224.821 45.3148 223.496 46.3586C223.94 46.6751 224.53 46.8291 225.248 46.8291C226.188 46.8291 227.171 46.6922 228.197 46.4185C229.223 46.1447 229.855 46.0078 230.086 46.0078C230.317 46.0078 230.471 46.2131 230.548 46.6238C230.573 46.7607 229.838 47.0259 228.342 47.4195C226.787 47.8131 225.607 48.0098 224.812 48.0098C224.069 48.0098 223.043 47.6676 221.727 46.9831C220.838 47.5136 219.966 48.0355 219.103 48.566C218.051 49.1306 217.094 49.413 216.231 49.413C215.778 49.413 215.35 49.2333 214.94 48.8825C214.615 48.6087 214.436 48.3606 214.402 48.1467C214.29 47.505 214.487 46.7607 215.008 45.9137C215.12 45.7597 215.692 44.9982 216.718 43.6207C217.214 42.979 217.803 42.3544 218.504 41.7727C219.786 40.6946 220.445 40.1299 220.496 40.0701C221.598 38.9749 222.693 37.8883 223.795 36.8103C225.599 35.0478 227.206 33.6446 228.624 32.5837C231.112 30.7271 232.573 29.6405 233.009 29.324C234.633 28.2288 235.779 27.6812 236.445 27.6812C236.779 27.6812 237.103 27.8352 237.42 28.1347C237.736 28.4342 237.924 28.7764 237.992 29.1443L238.018 29.1614ZM236.667 29.1614C236.642 29.0074 236.565 28.9304 236.454 28.9304C235.65 28.9304 233.334 30.4961 229.505 33.6275C228.667 34.312 227.043 35.8606 224.624 38.2648C226.154 37.6402 227.223 37.1782 227.812 36.8873C229.077 36.2798 230.206 35.6039 231.214 34.8596C232.462 33.9441 233.693 32.8404 234.924 31.5741C236.146 30.2993 236.727 29.5036 236.676 29.17L236.667 29.1614Z" fill="#F4CD44"/>
<path d="M250.222 46.0077C250.273 46.2815 249.179 46.9574 246.956 48.044C244.734 49.1305 243.102 49.6696 242.067 49.6696C241.751 49.6696 241.401 49.5754 241.007 49.3787C240.614 49.1819 240.392 48.9594 240.349 48.7028C240.272 48.2493 240.366 47.6675 240.631 46.9403C239.17 47.5477 238.033 47.8386 237.212 47.8215C236.059 47.8044 235.024 47.5477 234.118 47.06C232.819 48.352 231.571 48.9936 230.383 48.9936C229.776 48.9936 229.417 48.6771 229.306 48.0525C229.221 47.5477 229.742 46.5381 230.887 45.0323C231.879 43.7575 233.058 42.4313 234.443 41.0367C235.409 40.0614 236.494 39.086 237.7 38.1192C238.905 37.1524 239.657 36.6647 239.956 36.6647C240.324 36.6647 240.546 36.8615 240.614 37.2551C240.64 37.392 240.315 37.7171 239.64 38.2219C238.563 39.086 237.99 39.5309 237.939 39.5737C236.289 41.0025 235.084 42.1148 234.298 42.919C235.135 42.919 235.691 42.9618 235.956 43.0388C236.409 43.1757 236.665 43.4067 236.725 43.7404C236.836 44.365 236.375 45.2205 235.358 46.29C236.084 46.6408 236.717 46.8205 237.264 46.8205C238.221 46.8205 239.512 46.4098 241.127 45.5884C241.777 45.2548 242.58 44.7842 243.546 44.1767C244.196 43.7489 244.614 43.535 244.811 43.535C245.358 43.535 245.657 43.6976 245.717 44.0313C245.751 44.2452 245.538 44.5104 245.067 44.827C243.914 45.6055 243.324 45.9991 243.307 45.9991C242.982 46.2558 242.572 46.6665 242.084 47.2483C241.597 47.8215 241.366 48.1723 241.384 48.2921C241.443 48.6429 241.674 48.8225 242.059 48.8225C242.29 48.8225 242.837 48.6771 243.683 48.3862C244.64 48.0696 245.512 47.7188 246.281 47.3338C248.546 46.1959 249.717 45.6312 249.794 45.6312C250.033 45.6483 250.17 45.7767 250.213 46.0162L250.222 46.0077ZM234.315 44.596C234.315 44.4591 234.204 44.3307 233.982 44.211C233.708 44.0912 233.067 44.5104 232.058 45.4601C231.05 46.4098 230.58 47.0857 230.657 47.4964C230.691 47.7103 230.853 47.8215 231.127 47.8215C231.34 47.8215 231.802 47.6076 232.494 47.1884C233.195 46.7691 233.665 46.3756 233.913 45.9991C234.067 45.6483 234.195 45.1778 234.315 44.5874V44.596Z" fill="#F4CD44"/>
<path d="M265.513 46.068C265.573 46.4188 264.71 46.9407 262.915 47.6251C261.47 48.1727 260.359 48.4465 259.598 48.4465C258.735 48.4465 258.026 48.3011 257.47 48.0102C257.282 47.9332 256.889 47.6594 256.299 47.1888C255.179 47.8134 254.35 48.1984 253.829 48.3353C253.025 48.5663 251.871 48.6861 250.341 48.6861C249.837 48.6861 249.358 48.5235 248.923 48.1898C248.487 47.8561 248.222 47.4455 248.136 46.9578C248.059 46.5043 248.683 45.5974 250.008 44.2285C251.307 42.9194 252.213 42.2008 252.743 42.0895C252.983 42.0296 253.145 42.2179 253.222 42.6457C253.256 42.8253 252.675 43.5012 251.495 44.6819C250.316 45.8626 249.752 46.6241 249.811 46.9578C249.871 47.3086 250.265 47.4883 250.991 47.4883C252.923 47.4883 254.76 46.8209 256.504 45.4948C256.855 45.2381 257.547 44.6221 258.581 43.6467C259.308 42.9793 259.778 42.6457 259.991 42.6457C260.282 42.6457 260.47 42.851 260.538 43.2617C260.641 43.852 260.47 44.3739 260.026 44.8445C259.863 45.0242 259.444 45.3493 258.761 45.8455C258.29 46.1792 258.077 46.453 258.111 46.6669C258.205 47.2145 258.718 47.4883 259.632 47.4883C260.06 47.4883 260.957 47.2744 262.308 46.8466C262.607 46.7525 263.145 46.53 263.923 46.2049C264.539 45.9311 264.923 45.7942 265.086 45.7942C265.342 45.7942 265.487 45.8883 265.522 46.0851L265.513 46.068ZM262.239 34.3893C262.265 34.5433 261.897 34.9369 261.128 35.5615C260.026 36.3999 259.333 36.9646 259.051 37.247C258.769 37.5293 258.214 38.1624 257.384 39.1378C256.803 39.8222 256.436 40.1645 256.307 40.1645C255.803 40.1645 255.513 40.0019 255.461 39.6682C255.384 39.2405 256.299 38.1453 258.196 36.3828C260 34.723 261.179 33.8845 261.744 33.8845C262.017 33.8845 262.18 34.0471 262.239 34.3808V34.3893Z" fill="#F4CD44"/>
</svg>
