<svg width="93" height="23" viewBox="0 0 93 23" fill="none" xmlns="http://www.w3.org/2000/svg">
<path d="M92.8866 14.7553H85.2603V13.4927H92.8866V14.7553Z" fill="#9E9E9E"/>
<path d="M92.8868 7.20801V8.45934H92.2074C92.7339 8.90665 93 9.50117 93 10.2486C93 10.7978 92.8472 11.2621 92.5471 11.6415C92.2414 12.0208 91.8224 12.2133 91.2788 12.2133C90.6844 12.2133 90.2371 12.0095 89.9313 11.5962C89.6256 11.1828 89.4727 10.6449 89.4727 9.97679C89.4727 9.43889 89.552 8.92929 89.7049 8.45368H89.603C89.218 8.45368 88.9292 8.57258 88.7254 8.80473C88.5216 9.03687 88.4197 9.3766 88.4197 9.81259C88.4197 10.3165 88.5329 10.8374 88.765 11.3923L87.7516 11.7377C87.4458 11.0526 87.293 10.3561 87.293 9.63706C87.293 8.8387 87.4968 8.23285 87.8988 7.82518C88.3008 7.41751 88.8783 7.21367 89.62 7.21367H92.8925L92.8868 7.20801ZM90.8938 8.43103H90.5825C90.4352 8.80473 90.3616 9.22939 90.3616 9.69368C90.3616 10.09 90.4409 10.4014 90.5938 10.6223C90.7466 10.8431 90.9618 10.9563 91.2392 10.9563C91.4883 10.9563 91.6865 10.8544 91.8337 10.6506C91.9809 10.4467 92.0545 10.1919 92.0545 9.88619C92.0545 9.46153 91.9469 9.11048 91.7318 8.8387C91.5166 8.56126 91.2392 8.42536 90.8938 8.42536V8.43103Z" fill="#9E9E9E"/>
<path d="M93.0002 2.5706C93.0002 3.32933 92.6774 3.95216 92.0263 4.43911H92.8813V5.70176H85.2549V4.43911H88.2839C87.5932 3.95216 87.2478 3.32933 87.2478 2.5706C87.2478 1.87416 87.5083 1.27398 88.0291 0.764387C88.55 0.254796 89.2521 0 90.1353 0C91.0185 0 91.7036 0.254796 92.2188 0.764387C92.7397 1.27398 93.0002 1.87416 93.0002 2.5706ZM91.9018 2.86504C91.9018 2.41773 91.7376 2.04403 91.4092 1.74393C91.0808 1.43818 90.6505 1.29096 90.1127 1.29096C89.5748 1.29096 89.1672 1.44384 88.8388 1.7496C88.5104 2.05535 88.3462 2.42905 88.3462 2.86504C88.3462 3.30102 88.516 3.68038 88.8501 3.99746C89.1841 4.31454 89.6144 4.47308 90.1353 4.47308C90.6562 4.47308 91.0752 4.31454 91.4035 3.99746C91.7319 3.68038 91.9018 3.30102 91.9018 2.86504Z" fill="#9E9E9E"/>
<path d="M0 22.1216V18.6338H0.611469V19.0811C0.849263 18.747 1.14934 18.5771 1.51735 18.5771C1.85706 18.5771 2.1458 18.7017 2.39492 18.9565C2.64404 19.2056 2.76294 19.551 2.76294 19.9757C2.76294 20.4004 2.63838 20.7344 2.39492 20.9892C2.15147 21.2383 1.85706 21.3686 1.51735 21.3686C1.14934 21.3686 0.849263 21.21 0.611469 20.8986V22.1273H0V22.1216ZM1.37581 20.8363C1.59095 20.8363 1.77213 20.7571 1.91933 20.5985C2.06654 20.44 2.14014 20.2305 2.14014 19.97C2.14014 19.7096 2.06654 19.5114 1.91933 19.3529C1.77213 19.1943 1.59095 19.115 1.37581 19.115C1.16066 19.115 0.979483 19.1943 0.826616 19.3585C0.673749 19.5227 0.594484 19.7266 0.594484 19.9814C0.594484 20.2362 0.673749 20.4343 0.826616 20.5985C0.979483 20.7571 1.16632 20.842 1.37581 20.842V20.8363Z" fill="#9E9E9E"/>
<path d="M6.14882 21.3066H5.54301V20.9782C5.32786 21.233 5.03911 21.3632 4.67676 21.3632C4.41066 21.3632 4.18419 21.2896 4.00301 21.1424C3.82184 20.9952 3.72559 20.7913 3.72559 20.5252C3.72559 20.2365 3.8275 20.0213 4.02566 19.8741C4.22382 19.7269 4.48426 19.6533 4.81264 19.6533C5.07308 19.6533 5.3222 19.6929 5.55433 19.7665V19.7155C5.55433 19.5287 5.49772 19.3871 5.38448 19.2909C5.27125 19.1946 5.10705 19.1437 4.89757 19.1437C4.65411 19.1437 4.39933 19.2003 4.13323 19.3135L3.96904 18.8209C4.29742 18.6737 4.63713 18.6001 4.98816 18.6001C5.37882 18.6001 5.66757 18.6964 5.86573 18.8945C6.06389 19.0927 6.16014 19.3701 6.16014 19.7325V21.3179L6.14882 21.3066ZM5.55433 20.3384V20.1855C5.37316 20.1119 5.16933 20.0779 4.94286 20.0779C4.75036 20.0779 4.5975 20.1175 4.48992 20.1912C4.38235 20.2648 4.32573 20.3723 4.32573 20.5026C4.32573 20.6215 4.37669 20.7177 4.47294 20.7913C4.56919 20.8649 4.69375 20.8989 4.84095 20.8989C5.04478 20.8989 5.21463 20.848 5.35051 20.7404C5.48639 20.6385 5.54867 20.5026 5.54867 20.3327L5.55433 20.3384Z" fill="#9E9E9E"/>
<path d="M8.29454 21.3686C7.83594 21.3686 7.44528 21.2327 7.12256 20.9609L7.41131 20.5532C7.66043 20.7684 7.94351 20.8703 8.25491 20.8703C8.39645 20.8703 8.51535 20.8363 8.6116 20.7684C8.70785 20.7004 8.75881 20.6099 8.75881 20.5023C8.75881 20.4004 8.71351 20.3211 8.61726 20.2588C8.52101 20.1965 8.39079 20.1682 8.21528 20.1682H7.8869V19.7266H8.21528C8.35682 19.7266 8.47006 19.6926 8.55498 19.6303C8.63991 19.568 8.6852 19.4831 8.6852 19.3812C8.6852 19.2906 8.64557 19.217 8.56064 19.1603C8.47572 19.1037 8.37381 19.0754 8.24359 19.0754C7.94351 19.0754 7.6944 19.166 7.48491 19.3472L7.21315 18.9622C7.50756 18.7074 7.86991 18.5771 8.3002 18.5771C8.59461 18.5771 8.83241 18.6451 9.01925 18.781C9.20608 18.9169 9.29667 19.0867 9.29667 19.2962C9.29667 19.5793 9.15513 19.7832 8.8777 19.9021C9.20042 20.0153 9.36461 20.2305 9.36461 20.5532C9.36461 20.7854 9.2627 20.9779 9.06454 21.1364C8.86638 21.295 8.60594 21.3742 8.28888 21.3742L8.29454 21.3686Z" fill="#9E9E9E"/>
<path d="M10.5142 22.1216V18.6338H11.1256V19.0811C11.3634 18.747 11.6635 18.5771 12.0315 18.5771C12.3712 18.5771 12.66 18.7017 12.9091 18.9565C13.1582 19.2056 13.2771 19.551 13.2771 19.9757C13.2771 20.4004 13.1525 20.7344 12.9091 20.9892C12.6656 21.2383 12.3712 21.3686 12.0315 21.3686C11.6635 21.3686 11.3634 21.21 11.1256 20.8986V22.1273H10.5142V22.1216ZM11.89 20.8363C12.1051 20.8363 12.2863 20.7571 12.4335 20.5985C12.5807 20.44 12.6543 20.2305 12.6543 19.97C12.6543 19.7096 12.5807 19.5114 12.4335 19.3529C12.2863 19.1943 12.1051 19.115 11.89 19.115C11.6748 19.115 11.4936 19.1943 11.3408 19.3585C11.1879 19.5227 11.1086 19.7266 11.1086 19.9814C11.1086 20.2362 11.1879 20.4343 11.3408 20.5985C11.4936 20.7571 11.6805 20.842 11.89 20.842V20.8363Z" fill="#9E9E9E"/>
<path d="M16.6625 21.3066H16.0567V20.9782C15.8415 21.233 15.5528 21.3632 15.1904 21.3632C14.9243 21.3632 14.6979 21.2896 14.5167 21.1424C14.3355 20.9952 14.2393 20.7913 14.2393 20.5252C14.2393 20.2365 14.3412 20.0213 14.5393 19.8741C14.7375 19.7269 14.9979 19.6533 15.3263 19.6533C15.5868 19.6533 15.8359 19.6929 16.068 19.7665V19.7155C16.068 19.5287 16.0114 19.3871 15.8982 19.2909C15.7849 19.1946 15.6207 19.1437 15.4112 19.1437C15.1678 19.1437 14.913 19.2003 14.6469 19.3135L14.4827 18.8209C14.8111 18.6737 15.1508 18.6001 15.5018 18.6001C15.8925 18.6001 16.1812 18.6964 16.3794 18.8945C16.5776 19.0927 16.6738 19.3701 16.6738 19.7325V21.3179L16.6625 21.3066ZM16.068 20.3384V20.1855C15.8868 20.1119 15.683 20.0779 15.4565 20.0779C15.264 20.0779 15.1112 20.1175 15.0036 20.1912C14.896 20.2648 14.8394 20.3723 14.8394 20.5026C14.8394 20.6215 14.8904 20.7177 14.9866 20.7913C15.0829 20.8649 15.2074 20.8989 15.3546 20.8989C15.5584 20.8989 15.7283 20.848 15.8642 20.7404C16.0001 20.6385 16.0623 20.5026 16.0623 20.3327L16.068 20.3384Z" fill="#9E9E9E"/>
<path d="M19.1932 21.3685C18.7629 21.3685 18.4232 21.2327 18.1797 20.9609C17.9363 20.6891 17.8174 20.3041 17.8174 19.8115C17.8174 19.6529 17.8174 19.5114 17.8287 19.3925C17.8344 19.2736 17.8514 19.1433 17.8797 19.0018C17.9023 18.8602 17.9419 18.7413 17.9872 18.6337C18.0382 18.5318 18.1005 18.4299 18.1741 18.3336C18.2477 18.2374 18.3496 18.1581 18.4685 18.0902C18.5874 18.0222 18.7289 17.9769 18.8875 17.943L20.3482 17.6372L20.4501 18.1298L18.9894 18.4469C18.7459 18.4979 18.5704 18.5884 18.4685 18.7187C18.3609 18.8489 18.3043 19.0131 18.2873 19.2056C18.3666 19.0697 18.4968 18.9508 18.6723 18.8546C18.8478 18.7526 19.063 18.7073 19.3177 18.7073C19.6631 18.7073 19.9632 18.8319 20.218 19.0867C20.4671 19.3358 20.5973 19.6473 20.5973 20.0096C20.5973 20.372 20.4671 20.7061 20.201 20.9722C19.9349 21.2383 19.6065 21.3742 19.2045 21.3742L19.1932 21.3685ZM19.2045 20.8363C19.431 20.8363 19.6178 20.757 19.7594 20.5985C19.9009 20.44 19.9745 20.2474 19.9745 20.0153C19.9745 19.7832 19.9009 19.5906 19.748 19.4321C19.5952 19.2736 19.414 19.1943 19.1932 19.1943C18.9724 19.1943 18.7855 19.2736 18.644 19.4321C18.5025 19.5906 18.4289 19.7888 18.4289 20.021C18.4289 20.2531 18.5025 20.4456 18.6497 20.6042C18.7969 20.7627 18.9837 20.842 19.1989 20.842L19.2045 20.8363Z" fill="#9E9E9E"/>
<path d="M22.9924 21.3689C22.5847 21.3689 22.2507 21.233 21.9789 20.9612C21.7072 20.6894 21.5713 20.361 21.5713 19.9703C21.5713 19.5796 21.7072 19.2512 21.9789 18.9795C22.2507 18.7077 22.5904 18.5718 22.9981 18.5718C23.4057 18.5718 23.7397 18.7077 24.0115 18.9795C24.2833 19.2512 24.4192 19.5796 24.4192 19.9703C24.4192 20.361 24.2833 20.6837 24.0115 20.9555C23.7397 21.2273 23.3944 21.3632 22.9867 21.3632L22.9924 21.3689ZM23.0037 20.8366C23.2472 20.8366 23.4453 20.7517 23.5925 20.5875C23.7397 20.4233 23.8133 20.2195 23.8133 19.976C23.8133 19.7325 23.7341 19.5343 23.5812 19.3645C23.4283 19.2003 23.2302 19.1153 22.9924 19.1153C22.7546 19.1153 22.5564 19.2003 22.4092 19.3645C22.262 19.5287 22.1884 19.7325 22.1884 19.976C22.1884 20.2195 22.2677 20.4176 22.4206 20.5818C22.5734 20.7517 22.7716 20.8366 23.0037 20.8366Z" fill="#9E9E9E"/>
<path d="M26.0271 21.3066V19.155H25.1665V18.6284H27.5048V19.155H26.6442V21.3066H26.0271Z" fill="#9E9E9E"/>
<path d="M28.4956 21.3066V18.6284H29.1014V19.9081L30.2677 18.6284H30.9868L29.9507 19.7552L31.0774 21.3066H30.3527L29.543 20.2025L29.1071 20.6611V21.3066H28.5013H28.4956Z" fill="#9E9E9E"/>
<path d="M34.1517 21.3066H33.5459V20.9782C33.3308 21.233 33.042 21.3632 32.6797 21.3632C32.4136 21.3632 32.1871 21.2896 32.0059 21.1424C31.8248 20.9952 31.7285 20.7913 31.7285 20.5252C31.7285 20.2365 31.8304 20.0213 32.0286 19.8741C32.2267 19.7269 32.4872 19.6533 32.8156 19.6533C33.076 19.6533 33.3251 19.6929 33.5573 19.7665V19.7155C33.5573 19.5287 33.5006 19.3871 33.3874 19.2909C33.2742 19.1946 33.11 19.1437 32.9005 19.1437C32.657 19.1437 32.4023 19.2003 32.1362 19.3135L31.972 18.8209C32.3004 18.6737 32.6401 18.6001 32.9911 18.6001C33.3817 18.6001 33.6705 18.6964 33.8687 18.8945C34.0668 19.0927 34.1631 19.3701 34.1631 19.7325V21.3179L34.1517 21.3066ZM33.5573 20.3384V20.1855C33.3761 20.1119 33.1723 20.0779 32.9458 20.0779C32.7533 20.0779 32.6004 20.1175 32.4929 20.1912C32.3853 20.2648 32.3287 20.3723 32.3287 20.5026C32.3287 20.6215 32.3796 20.7177 32.4759 20.7913C32.5721 20.8649 32.6967 20.8989 32.8439 20.8989C33.0477 20.8989 33.2176 20.848 33.3534 20.7404C33.4893 20.6385 33.5516 20.5026 33.5516 20.3327L33.5573 20.3384Z" fill="#9E9E9E"/>
<path d="M38.6529 21.3686C38.2566 21.3686 37.9282 21.2327 37.6678 20.9666C37.4074 20.7004 37.2715 20.372 37.2715 19.987V19.9757C37.2715 19.5907 37.4017 19.2623 37.6678 18.9905C37.9339 18.7187 38.2623 18.5771 38.6586 18.5771C39.0889 18.5771 39.4456 18.73 39.7287 19.0414L39.3493 19.4491C39.1342 19.2283 38.9077 19.115 38.6529 19.115C38.4321 19.115 38.251 19.2 38.1038 19.3642C37.9566 19.5284 37.883 19.7322 37.883 19.9644V19.9757C37.883 20.2192 37.9566 20.423 38.1094 20.5872C38.2623 20.7514 38.4491 20.8363 38.6869 20.8363C38.936 20.8363 39.1625 20.7231 39.3833 20.5023L39.7513 20.8646C39.6041 21.0288 39.4456 21.1534 39.2757 21.2383C39.1059 21.3233 38.8964 21.3686 38.6529 21.3686Z" fill="#9E9E9E"/>
<path d="M43.035 21.3066H42.4292V20.9782C42.2141 21.233 41.9253 21.3632 41.563 21.3632C41.2969 21.3632 41.0704 21.2896 40.8892 21.1424C40.7081 20.9952 40.6118 20.7913 40.6118 20.5252C40.6118 20.2365 40.7137 20.0213 40.9119 19.8741C41.1101 19.7269 41.3705 19.6533 41.6989 19.6533C41.9593 19.6533 42.2084 19.6929 42.4406 19.7665V19.7155C42.4406 19.5287 42.3839 19.3871 42.2707 19.2909C42.1575 19.1946 41.9933 19.1437 41.7838 19.1437C41.5403 19.1437 41.2856 19.2003 41.0195 19.3135L40.8553 18.8209C41.1837 18.6737 41.5234 18.6001 41.8744 18.6001C42.265 18.6001 42.5538 18.6964 42.752 18.8945C42.9501 19.0927 43.0464 19.3701 43.0464 19.7325V21.3179L43.035 21.3066ZM42.4406 20.3384V20.1855C42.2594 20.1119 42.0556 20.0779 41.8291 20.0779C41.6366 20.0779 41.4837 20.1175 41.3762 20.1912C41.2686 20.2648 41.212 20.3723 41.212 20.5026C41.212 20.6215 41.2629 20.7177 41.3592 20.7913C41.4554 20.8649 41.58 20.8989 41.7272 20.8989C41.931 20.8989 42.1009 20.848 42.2367 20.7404C42.3726 20.6385 42.4349 20.5026 42.4349 20.3327L42.4406 20.3384Z" fill="#9E9E9E"/>
<path d="M44.2695 21.3063V18.6281H44.8697V20.423C45.4302 19.6247 45.8548 19.0302 46.1379 18.6281H46.7154V21.3063H46.1209V19.5228L44.847 21.3063H44.2695ZM46.0247 18.1299C45.8831 18.2544 45.7076 18.3224 45.4925 18.3224C45.2773 18.3224 45.1018 18.2601 44.9603 18.1299C44.8187 17.9996 44.7281 17.8298 44.6942 17.6146L45.0678 17.541C45.1414 17.7732 45.2773 17.8864 45.4868 17.8864C45.6963 17.8864 45.8378 17.7732 45.9058 17.541L46.2738 17.6146C46.2398 17.8298 46.1549 18.0053 46.0133 18.1299H46.0247Z" fill="#9E9E9E"/>
<path d="M48.5666 21.3066V19.155H47.7061V18.6284H50.0444V19.155H49.1838V21.3066H48.5666Z" fill="#9E9E9E"/>
<path d="M52.2072 21.3689C51.7996 21.3689 51.4655 21.233 51.1938 20.9612C50.922 20.6894 50.7861 20.361 50.7861 19.9703C50.7861 19.5796 50.922 19.2512 51.1938 18.9795C51.4655 18.7077 51.8053 18.5718 52.2129 18.5718C52.6205 18.5718 52.9546 18.7077 53.2264 18.9795C53.4981 19.2512 53.634 19.5796 53.634 19.9703C53.634 20.361 53.4981 20.6837 53.2264 20.9555C52.9546 21.2273 52.6092 21.3632 52.2016 21.3632L52.2072 21.3689ZM52.2186 20.8366C52.462 20.8366 52.6602 20.7517 52.8074 20.5875C52.9546 20.4233 53.0282 20.2195 53.0282 19.976C53.0282 19.7325 52.9489 19.5343 52.7961 19.3645C52.6432 19.2003 52.445 19.1153 52.2072 19.1153C51.9694 19.1153 51.7713 19.2003 51.6241 19.3645C51.4769 19.5287 51.4033 19.7325 51.4033 19.976C51.4033 20.2195 51.4825 20.4176 51.6354 20.5818C51.7883 20.7517 51.9864 20.8366 52.2186 20.8366Z" fill="#9E9E9E"/>
<path d="M54.772 21.3066V18.6284H56.1478C56.4139 18.6284 56.629 18.6907 56.7876 18.8096C56.9461 18.9285 57.0254 19.0927 57.0254 19.2965C57.0254 19.574 56.8838 19.7835 56.5951 19.9081C56.9631 20.0156 57.1499 20.2365 57.1499 20.5762C57.1499 20.8027 57.0593 20.9782 56.8838 21.1084C56.7083 21.2387 56.4648 21.3009 56.1648 21.3009H54.7776L54.772 21.3066ZM55.3721 19.7382H56.0006C56.1251 19.7382 56.2214 19.7099 56.295 19.6476C56.3686 19.5853 56.4026 19.506 56.4026 19.4098C56.4026 19.3192 56.3686 19.2456 56.3063 19.189C56.244 19.1323 56.1421 19.104 56.0119 19.104H55.3721V19.7382ZM55.3721 20.8253H56.0685C56.2157 20.8253 56.329 20.797 56.4082 20.7291C56.4875 20.6668 56.5271 20.5818 56.5271 20.4799C56.5271 20.378 56.4875 20.2987 56.4026 20.2421C56.3176 20.1855 56.1987 20.1572 56.0402 20.1572H55.3778V20.8253H55.3721Z" fill="#9E9E9E"/>
<path d="M58.2256 21.3063V20.6099H58.8993V21.3063H58.2256Z" fill="#9E9E9E"/>
<path d="M62.1663 21.3066V18.6284H62.7721L63.6101 19.8684L64.4537 18.6284H65.0595V21.3066H64.4423V19.523L63.5987 20.7234L62.7608 19.5344V21.3066H62.1606H62.1663Z" fill="#9E9E9E"/>
<path d="M68.5809 21.3066H67.9751V20.9782C67.76 21.233 67.4712 21.3632 67.1089 21.3632C66.8428 21.3632 66.6163 21.2896 66.4351 21.1424C66.254 20.9952 66.1577 20.7913 66.1577 20.5252C66.1577 20.2365 66.2596 20.0213 66.4578 19.8741C66.6559 19.7269 66.9164 19.6533 67.2448 19.6533C67.5052 19.6533 67.7543 19.6929 67.9865 19.7665V19.7155C67.9865 19.5287 67.9298 19.3871 67.8166 19.2909C67.7034 19.1946 67.5392 19.1437 67.3297 19.1437C67.0862 19.1437 66.8315 19.2003 66.5654 19.3135L66.4012 18.8209C66.7296 18.6737 67.0693 18.6001 67.4203 18.6001C67.8109 18.6001 68.0997 18.6964 68.2979 18.8945C68.496 19.0927 68.5923 19.3701 68.5923 19.7325V21.3179L68.5809 21.3066ZM67.9865 20.3384V20.1855C67.8053 20.1119 67.6015 20.0779 67.375 20.0779C67.1825 20.0779 67.0296 20.1175 66.9221 20.1912C66.8145 20.2648 66.7579 20.3723 66.7579 20.5026C66.7579 20.6215 66.8088 20.7177 66.9051 20.7913C67.0013 20.8649 67.1259 20.8989 67.2731 20.8989C67.4769 20.8989 67.6468 20.848 67.7826 20.7404C67.9185 20.6385 67.9808 20.5026 67.9808 20.3327L67.9865 20.3384Z" fill="#9E9E9E"/>
<path d="M69.8149 22.1216V18.6338H70.4264V19.0811C70.6642 18.747 70.9643 18.5771 71.3323 18.5771C71.672 18.5771 71.9607 18.7017 72.2099 18.9565C72.459 19.2056 72.5779 19.551 72.5779 19.9757C72.5779 20.4004 72.4533 20.7344 72.2099 20.9892C71.9664 21.2383 71.672 21.3686 71.3323 21.3686C70.9643 21.3686 70.6642 21.21 70.4264 20.8986V22.1273H69.8149V22.1216ZM71.1907 20.8363C71.4059 20.8363 71.5871 20.7571 71.7343 20.5985C71.8815 20.44 71.9551 20.2305 71.9551 19.97C71.9551 19.7096 71.8815 19.5114 71.7343 19.3529C71.5871 19.1943 71.4059 19.115 71.1907 19.115C70.9756 19.115 70.7944 19.1943 70.6416 19.3585C70.4887 19.5227 70.4094 19.7266 70.4094 19.9814C70.4094 20.2362 70.4887 20.4343 70.6416 20.5985C70.7944 20.7571 70.9813 20.842 71.1907 20.842V20.8363Z" fill="#9E9E9E"/>
<path d="M73.7158 21.3066V18.6284H74.3216V19.9081L75.488 18.6284H76.207L75.1709 19.7552L76.2976 21.3066H75.5729L74.7632 20.2025L74.3273 20.6611V21.3066H73.7215H73.7158Z" fill="#9E9E9E"/>
<path d="M78.3018 21.3686C77.9111 21.3686 77.5827 21.2383 77.3223 20.9779C77.0619 20.7174 76.9316 20.3834 76.9316 19.97C76.9316 19.5793 77.0562 19.2509 77.2997 18.9848C77.5488 18.713 77.8602 18.5771 78.2395 18.5771C78.6472 18.5771 78.9585 18.713 79.185 18.9905C79.4115 19.2679 79.5247 19.6077 79.5247 20.0153C79.5247 20.0889 79.5247 20.1456 79.5134 20.1852H77.5488C77.5827 20.4004 77.6677 20.5646 77.8092 20.6835C77.9507 20.8024 78.1206 20.8646 78.3188 20.8646C78.5849 20.8646 78.8227 20.7571 79.0435 20.5476L79.4002 20.8646C79.1227 21.1987 78.7604 21.3686 78.3074 21.3686H78.3018ZM77.5374 19.7832H78.9133C78.8906 19.5793 78.8227 19.4095 78.7038 19.2736C78.5849 19.1377 78.4263 19.0754 78.2338 19.0754C78.0413 19.0754 77.8941 19.1434 77.7696 19.2736C77.645 19.4038 77.5714 19.5737 77.5431 19.7832H77.5374Z" fill="#9E9E9E"/>
<path d="M81.116 21.3066V19.155H80.2554V18.6284H82.5937V19.155H81.7331V21.3066H81.116Z" fill="#9E9E9E"/>
<path d="M83.5903 21.3066V18.6284H84.1905V20.4233C84.751 19.625 85.1756 19.0304 85.4587 18.6284H86.0362V21.3066H85.4417V19.523L84.1678 21.3066H83.5903Z" fill="#9E9E9E"/>
<path d="M87.3101 21.3066V18.6284H87.9215V19.7155H89.0992V18.6284H89.7106V21.3066H89.0992V20.2251H87.9215V21.3066H87.3101Z" fill="#9E9E9E"/>
<path d="M90.9902 21.3066V18.6284H92.8869V19.155H91.6074V21.3066H90.9959H90.9902Z" fill="#9E9E9E"/>
<path d="M17.3814 0.0336914H13.5767V14.8401H24.4869V11.4995H17.3814V0.0336914Z" fill="#9E9E9E"/>
<path d="M46.7379 9.67629L43.0578 0.0336914H38.8511L44.8978 14.9251H48.5157L54.5851 0.0336914H50.435L46.7379 9.67629Z" fill="#9E9E9E"/>
<path d="M79.5365 0.0336914V8.17583L73.0651 0.0336914H69.8096V14.8401H73.552V6.65272L80.1083 14.8401H83.2619V0.0336914H79.5365Z" fill="#9E9E9E"/>
<path d="M67.4823 0.0336914H56.2324V3.37435H67.4823V0.0336914Z" fill="#9E9E9E"/>
<path d="M59.5729 7.68899L56.2324 5.76953V9.11019H67.4823V5.76953H59.5729V7.68899Z" fill="#9E9E9E"/>
<path d="M59.5729 13.419L56.2324 11.4995V14.8402H67.4823V11.4995H59.5729V13.419Z" fill="#9E9E9E"/>
<path d="M0 0.0336914V3.37435V5.76942V9.11008V11.4995V14.8401H3.34044H11.6123V11.4995H3.34044V9.11008H11.6123V5.76942H3.34044V3.37435H11.6123V0.0336914H3.34044H0Z" fill="#9E9E9E"/>
<path d="M26.4575 0.0336914V3.37435V5.76942V9.11008V11.4995V14.8401H29.798H37.7074V11.4995H29.798V9.11008H37.7074V5.76942H29.798V3.37435H37.7074V0.0336914H29.798H26.4575Z" fill="#9E9E9E"/>
</svg>
