<svg width="122" height="24" viewBox="0 0 122 24" fill="none" xmlns="http://www.w3.org/2000/svg">
<path d="M51.683 13.0216L49.7651 8.37365L47.8473 13.0059L51.683 13.0216ZM52.5633 15.1491H46.946L45.8979 17.7377H43.0264L48.4184 5.63834H51.1852L56.593 17.7377H53.6585L52.5633 15.1491Z" fill="#1D1D20"/>
<path d="M69.2374 5.63834V17.7377H66.4706V7.92301H62.3257L62.2366 10.4435C62.2137 11.8498 62.0753 13.2519 61.8227 14.6356C61.6769 15.5343 61.2994 16.3795 60.7275 17.0879C60.4527 17.3793 60.1176 17.6072 59.7456 17.7556C59.3736 17.9041 58.9737 17.9695 58.5738 17.9473C58.1069 17.9343 57.6429 17.8693 57.1904 17.7534L57.3633 15.3849C57.533 15.4371 57.7099 15.4619 57.8874 15.4583C58.5528 15.4583 59.0192 15.06 59.2865 14.274C59.6171 13.0644 59.7931 11.8178 59.8105 10.564L59.9834 5.65404L69.2374 5.63834Z" fill="#1D1D20"/>
<path d="M79.0464 15.1282C79.2595 14.9286 79.4252 14.6837 79.5313 14.4117C79.6374 14.1397 79.6812 13.8473 79.6595 13.5561C79.6595 12.3055 78.8875 11.6784 77.3434 11.6749H74.8176V15.6469H77.3434C77.9561 15.6869 78.5622 15.5004 79.0464 15.1229V15.1282ZM81.2944 10.5955C81.7007 10.9599 82.0186 11.4122 82.2238 11.918C82.429 12.4238 82.5162 12.9697 82.4787 13.5142C82.518 14.1038 82.4202 14.6946 82.1929 15.2401C81.9656 15.7856 81.615 16.271 81.1686 16.6583C80.2988 17.3814 79.0726 17.7377 77.5006 17.7377H72.0352V5.63834H74.8176V9.61555H77.8936C79.1075 9.53585 80.311 9.88447 81.2944 10.6007" fill="#1D1D20"/>
<path d="M87.5363 8.47324C87.3184 8.68545 87.1493 8.94253 87.0407 9.22666C86.9321 9.5108 86.8866 9.81518 86.9075 10.1186C86.8884 10.4165 86.9321 10.7151 87.0359 10.995C87.1398 11.2748 87.3013 11.5297 87.5101 11.7431C88.0085 12.1555 88.6465 12.36 89.2917 12.3142H91.7441V7.92303H89.3651C88.7105 7.87772 88.0619 8.07341 87.5416 8.47324H87.5363ZM94.5161 5.63836V17.7377H91.7494V14.5255H89.1922L87.049 17.7377H84.0936L86.6193 14.0697C85.8491 13.7747 85.1897 13.2472 84.7329 12.5605C84.2818 11.8314 84.0541 10.9861 84.0779 10.1291C84.0562 9.28103 84.2781 8.44454 84.7171 7.71866C85.1554 7.02917 85.7856 6.48277 86.5302 6.14663C87.4037 5.77392 88.3477 5.59514 89.297 5.62262L94.5161 5.63836Z" fill="#1D1D20"/>
<path d="M108.407 5.63834V17.7377H105.604V12.7806H100.112V17.7377H97.3086V5.63834H100.112V10.4121H105.604V5.63834H108.407Z" fill="#1D1D20"/>
<path d="M113.658 17.1456C112.687 16.6286 111.875 15.8569 111.31 14.9133C110.75 13.9314 110.456 12.8208 110.456 11.6907C110.456 10.5605 110.75 9.44985 111.31 8.46799C111.874 7.52323 112.686 6.75114 113.658 6.2357C114.694 5.69174 115.851 5.41613 117.022 5.43398C117.998 5.41981 118.966 5.60711 119.867 5.98419C120.69 6.33549 121.421 6.87371 122 7.55622L120.202 9.21732C119.835 8.76661 119.37 8.4048 118.843 8.1589C118.315 7.91301 117.74 7.7894 117.158 7.79727C116.459 7.78392 115.769 7.95374 115.156 8.28984C114.578 8.6099 114.1 9.08547 113.778 9.66275C113.454 10.2822 113.285 10.9707 113.285 11.6697C113.285 12.3686 113.454 13.0572 113.778 13.6767C114.1 14.2539 114.578 14.7295 115.156 15.0496C115.77 15.3832 116.459 15.5528 117.158 15.5421C117.741 15.5485 118.318 15.4226 118.845 15.1739C119.372 14.9252 119.836 14.5602 120.202 14.1063L122 15.7674C121.426 16.4682 120.691 17.0186 119.857 17.3709C118.955 17.7517 117.984 17.9408 117.006 17.9264C115.84 17.9429 114.689 17.6673 113.658 17.1246" fill="#1D1D20"/>
<path d="M22.8204 0.00522923V0H17.2502L6.96387 23.4023H12.5393L22.8204 0.00522923Z" fill="#EF402F"/>
<path d="M15.8513 0.00522923V0H10.2811L0 23.397H5.57023L15.8513 0.00522923Z" fill="#EF402F"/>
<path d="M23.5122 1.58249L20.7402 7.89157L23.5436 14.274H17.9367L16.1289 18.3822H25.3462L27.5471 23.397H33.1016L23.5122 1.58249Z" fill="#EF402F"/>
</svg>
