<svg width="29" height="24" viewBox="0 0 29 24" fill="none" xmlns="http://www.w3.org/2000/svg">
<path d="M9.60779 9.54461C11.8546 9.54461 13.676 7.72322 13.676 5.47641C13.676 3.2296 11.8546 1.4082 9.60779 1.4082C7.36098 1.4082 5.53958 3.2296 5.53958 5.47641C5.53958 7.72322 7.36098 9.54461 9.60779 9.54461Z" stroke="#EF402F" stroke-miterlimit="10"/>
<path d="M17.9769 19.1252C17.9769 23.7471 1.23871 23.7471 1.23871 19.1252C1.23871 14.5033 4.98595 10.7561 9.60782 10.7561C14.2297 10.7561 17.9769 14.5033 17.9769 19.1252Z" stroke="#EF402F" stroke-miterlimit="10"/>
<path d="M22.9599 6.24669C24.2982 6.24669 25.3832 5.16175 25.3832 3.82341C25.3832 2.48508 24.2982 1.40015 22.9599 1.40015C21.6216 1.40015 20.5366 2.48508 20.5366 3.82341C20.5366 5.16175 21.6216 6.24669 22.9599 6.24669Z" stroke="#EF402F" stroke-miterlimit="10"/>
<path d="M27.9348 11.9438C27.9348 14.6961 17.9769 14.6961 17.9769 11.9438C17.9769 9.19154 20.2076 6.96887 22.9518 6.96887C25.6961 6.96887 27.9268 9.19956 27.9268 11.9438H27.9348Z" stroke="#EF402F" stroke-miterlimit="10"/>
</svg>
