<svg width="25" height="26" viewBox="0 0 25 26" fill="none" xmlns="http://www.w3.org/2000/svg">
<path d="M13.1314 1.26587H2.7563C1.9852 1.26587 1.36011 1.89096 1.36011 2.66206V23.9419C1.36011 24.713 1.9852 25.3381 2.7563 25.3381H13.1314C13.9025 25.3381 14.5276 24.713 14.5276 23.9419V2.66206C14.5276 1.89096 13.9025 1.26587 13.1314 1.26587Z" stroke="#EF402F" stroke-miterlimit="10"/>
<path d="M22.5437 7.23572H15.9238C15.1527 7.23572 14.5276 7.86081 14.5276 8.63191V23.9418C14.5276 24.7129 15.1527 25.338 15.9238 25.338H22.5437C23.3148 25.338 23.9399 24.7129 23.9399 23.9418V8.63191C23.9399 7.86081 23.3148 7.23572 22.5437 7.23572Z" stroke="#EF402F" stroke-miterlimit="10"/>
<path d="M4.1846 5.92786H11.7112" stroke="#EF402F" stroke-miterlimit="10"/>
<path d="M4.1846 9.75537H11.7112" stroke="#EF402F" stroke-miterlimit="10"/>
<path d="M4.1846 13.5829H11.7112" stroke="#EF402F" stroke-miterlimit="10"/>
<path d="M4.1846 17.4104H11.7112" stroke="#EF402F" stroke-miterlimit="10"/>
<path d="M4.1846 21.2296H11.7112" stroke="#EF402F" stroke-miterlimit="10"/>
<path d="M16.9509 10.4052H21.5246" stroke="#EF402F" stroke-miterlimit="10"/>
<path d="M16.9509 15.8214H21.5246" stroke="#EF402F" stroke-miterlimit="10"/>
<path d="M16.9509 21.2296H21.5246" stroke="#EF402F" stroke-miterlimit="10"/>
</svg>
