<svg display="none" xmlns="http://www.w3.org/2000/svg">

	<symbol id="info" viewBox="0 0 31 31">
		<path fill-rule="evenodd" clip-rule="evenodd"
			d="M15.5 29.7843C23.389 29.7843 29.7843 23.389 29.7843 15.5C29.7843 7.61099 23.389 1.21569 15.5 1.21569C7.61099 1.21569 1.21569 7.61099 1.21569 15.5C1.21569 23.389 7.61099 29.7843 15.5 29.7843ZM15.5 31C24.0604 31 31 24.0604 31 15.5C31 6.93959 24.0604 0 15.5 0C6.93959 0 0 6.93959 0 15.5C0 24.0604 6.93959 31 15.5 31Z" />
		<path
			d="M14.9384 5.47059H16.6306L16.3388 20.0296H15.2301L14.9384 5.47059ZM15.7845 26.0108C15.4538 26.0108 15.1718 25.8941 14.9384 25.6607C14.7049 25.4273 14.5882 25.1453 14.5882 24.8146C14.5882 24.4839 14.7049 24.2019 14.9384 23.9685C15.1718 23.7351 15.4538 23.6184 15.7845 23.6184C16.1346 23.6184 16.4264 23.7351 16.6598 23.9685C16.8932 24.2019 17.0099 24.4839 17.0099 24.8146C17.0099 25.1453 16.8932 25.4273 16.6598 25.6607C16.4264 25.8941 16.1346 26.0108 15.7845 26.0108Z" />
	</symbol>


	<symbol id="location" viewBox="0 0 13 17">
		<path fill-rule="evenodd" clip-rule="evenodd"
			d="M6.5 17C6.5 17 13 10.4166 13 6.71053C13 3.00441 10.0899 0 6.5 0C2.91015 0 0 3.00441 0 6.71053C0 10.4166 6.5 17 6.5 17ZM6.5 10C8.433 10 10 8.433 10 6.5C10 4.567 8.433 3 6.5 3C4.567 3 3 4.567 3 6.5C3 8.433 4.567 10 6.5 10Z" />
	</symbol>

	<symbol id="heart" viewBox="0 0 22 19">
		<path
			d="M19.3714 12.0449L19.3662 12.0503L19.3611 12.0559C18.4928 13.016 16.5792 14.5206 14.8116 15.8409C13.936 16.4949 13.1094 17.0941 12.4857 17.5459L12.4368 17.5813C12.1471 17.7911 11.9021 17.9685 11.7208 18.1019C11.6253 18.1722 11.5449 18.2321 11.4838 18.279C11.4592 18.2979 11.4277 18.3221 11.3967 18.3478C11.1764 18.4607 11.0747 18.5 11 18.5C10.9254 18.5 10.8239 18.4608 10.6043 18.3483C10.5746 18.3234 10.5443 18.2996 10.5199 18.2805C10.459 18.2329 10.3788 18.1719 10.2833 18.1001C10.0918 17.9562 9.82956 17.7622 9.51819 17.5321L9.43363 17.4696C8.82038 17.0164 8.02795 16.4307 7.19053 15.7982C5.42377 14.4638 3.50271 12.9545 2.62857 12.0449C0.717851 10.0565 0.5 7.85243 0.5 6.37267C0.5 3.09558 3.12389 0.5 6.12371 0.5C7.9839 0.5 9.6508 1.46694 10.7012 2.99724L11.1134 3.59783L11.5256 2.99724C12.5825 1.45743 14.2532 0.5 15.8763 0.5C18.9836 0.5 21.5 3.08947 21.5 6.37267C21.5 7.85243 21.2822 10.0565 19.3714 12.0449Z" />
	</symbol>
	<symbol id="comparison" viewBox="0 0 26 21">
		<path fill-rule="evenodd" clip-rule="evenodd"
			d="M3.18182 20C1.97683 20 1 19.0548 1 17.8889L1 11.5556C1 10.3896 1.97683 9.44444 3.18182 9.44444C4.3868 9.44444 5.36364 10.3896 5.36364 11.5556L5.36364 17.8889C5.36364 19.0548 4.3868 20 3.18182 20Z" />
		<path fill-rule="evenodd" clip-rule="evenodd"
			d="M13 20C11.795 20 10.8182 19.0548 10.8182 17.8889L10.8182 3.11111C10.8182 1.94518 11.795 1 13 1C14.205 1 15.1818 1.94518 15.1818 3.11111L15.1818 17.8889C15.1818 19.0548 14.205 20 13 20Z" />
		<path fill-rule="evenodd" clip-rule="evenodd"
			d="M22.8182 20C21.6132 20 20.6364 19.0548 20.6364 17.8889V7.33333C20.6364 6.1674 21.6132 5.22222 22.8182 5.22222C24.0232 5.22222 25 6.1674 25 7.33333V17.8889C25 19.0548 24.0232 20 22.8182 20Z" />
	</symbol>

	<symbol id="arrow-right" viewBox="0 0 27 15">
		<path
			d="M26.7071 8.2071C27.0976 7.81658 27.0976 7.18342 26.7071 6.79289L20.3431 0.42893C19.9526 0.0384061 19.3195 0.0384061 18.9289 0.428931C18.5384 0.819455 18.5384 1.45262 18.9289 1.84314L24.5858 7.5L18.9289 13.1569C18.5384 13.5474 18.5384 14.1805 18.9289 14.5711C19.3195 14.9616 19.9526 14.9616 20.3431 14.5711L26.7071 8.2071ZM8.74228e-08 8.5L26 8.5L26 6.5L-8.74228e-08 6.5L8.74228e-08 8.5Z" />
	</symbol>

	<symbol id="home-slider-right" viewBox="0 0 68 16">
		<path
			d="M67.7071 8.70711C68.0976 8.31659 68.0976 7.68342 67.7071 7.2929L61.3431 0.928938C60.9526 0.538413 60.3195 0.538413 59.9289 0.928937C59.5384 1.31946 59.5384 1.95263 59.9289 2.34315L65.5858 8.00001L59.9289 13.6569C59.5384 14.0474 59.5384 14.6805 59.9289 15.0711C60.3195 15.4616 60.9526 15.4616 61.3431 15.0711L67.7071 8.70711ZM-8.74228e-08 9L67 9.00001L67 7.00001L8.74228e-08 7L-8.74228e-08 9Z"/>
	</symbol>


	<symbol id="arrow-bottom" viewBox="0 0 23 12">
		<path d="M1 0.5L11.5 10.5L22 0.5" />
	</symbol>


	<symbol id="burger" viewBox="0 0 30 25">
		<path
			d="M0 2.5C0 1.11929 1.11929 0 2.5 0H27.5C28.8807 0 30 1.11929 30 2.5C30 3.88071 28.8807 5 27.5 5H2.5C1.11929 5 0 3.88071 0 2.5Z" />
		<path
			d="M0 12.5C0 11.1193 1.11929 10 2.5 10H27.5C28.8807 10 30 11.1193 30 12.5C30 13.8807 28.8807 15 27.5 15H2.5C1.11929 15 0 13.8807 0 12.5Z" />
		<path
			d="M0 22.5C0 21.1193 1.11929 20 2.5 20H27.5C28.8807 20 30 21.1193 30 22.5C30 23.8807 28.8807 25 27.5 25H2.5C1.11929 25 0 23.8807 0 22.5Z" />
	</symbol>

	<symbol id="next" viewBox="0 0 12 22">
		<path d="M0.5 21.5L10.5 11L0.499999 0.500001" />
	</symbol>

	<symbol id="close" viewBox="0 0 15 15">
		<path
			d="M1.9957 0.422876C1.66998 0.0971598 1.14189 0.0971597 0.816173 0.422876L0.422998 0.816051C0.0972818 1.14177 0.0972818 1.66986 0.422998 1.99557L5.33768 6.91026C5.6634 7.23597 5.6634 7.76406 5.33768 8.08978L0.422998 13.0045C0.0972818 13.3302 0.0972818 13.8583 0.422998 14.184L0.816173 14.5772C1.14189 14.9029 1.66998 14.9029 1.9957 14.5772L6.91038 9.66248C7.2361 9.33676 7.76418 9.33676 8.0899 9.66248L13.0046 14.5772C13.3303 14.9029 13.8584 14.9029 14.1841 14.5772L14.5773 14.184C14.903 13.8583 14.903 13.3302 14.5773 13.0045L9.6626 8.08978C9.33688 7.76406 9.33688 7.23597 9.6626 6.91026L14.5773 1.99557C14.903 1.66986 14.903 1.14177 14.5773 0.816051L14.1841 0.422876C13.8584 0.0971598 13.3303 0.0971597 13.0046 0.422876L8.0899 5.33756C7.76418 5.66327 7.2361 5.66327 6.91038 5.33756L1.9957 0.422876Z" />
	</symbol>

	<symbol id="delete" viewBox="0 0 16 17">
		<path
			d="M15.3333 2.61538H12V1.96154C12 1.44131 11.7893 0.942381 11.4142 0.574521C11.0391 0.206662 10.5304 0 10 0H6C5.46957 0 4.96086 0.206662 4.58579 0.574521C4.21071 0.942381 4 1.44131 4 1.96154V2.61538H0.666667C0.489856 2.61538 0.320287 2.68427 0.195262 2.80689C0.070238 2.92951 0 3.09582 0 3.26923C0 3.44264 0.070238 3.60895 0.195262 3.73157C0.320287 3.85419 0.489856 3.92308 0.666667 3.92308H1.33333V15.6923C1.33333 16.0391 1.47381 16.3717 1.72386 16.617C1.97391 16.8622 2.31304 17 2.66667 17H13.3333C13.687 17 14.0261 16.8622 14.2761 16.617C14.5262 16.3717 14.6667 16.0391 14.6667 15.6923V3.92308H15.3333C15.5101 3.92308 15.6797 3.85419 15.8047 3.73157C15.9298 3.60895 16 3.44264 16 3.26923C16 3.09582 15.9298 2.92951 15.8047 2.80689C15.6797 2.68427 15.5101 2.61538 15.3333 2.61538ZM5.33333 1.96154C5.33333 1.78813 5.40357 1.62182 5.5286 1.4992C5.65362 1.37658 5.82319 1.30769 6 1.30769H10C10.1768 1.30769 10.3464 1.37658 10.4714 1.4992C10.5964 1.62182 10.6667 1.78813 10.6667 1.96154V2.61538H5.33333V1.96154ZM13.3333 15.6923H2.66667V3.92308H13.3333V15.6923ZM6.66667 7.19231V12.4231C6.66667 12.5965 6.59643 12.7628 6.4714 12.8854C6.34638 13.008 6.17681 13.0769 6 13.0769C5.82319 13.0769 5.65362 13.008 5.5286 12.8854C5.40357 12.7628 5.33333 12.5965 5.33333 12.4231V7.19231C5.33333 7.0189 5.40357 6.85259 5.5286 6.72997C5.65362 6.60735 5.82319 6.53846 6 6.53846C6.17681 6.53846 6.34638 6.60735 6.4714 6.72997C6.59643 6.85259 6.66667 7.0189 6.66667 7.19231ZM10.6667 7.19231V12.4231C10.6667 12.5965 10.5964 12.7628 10.4714 12.8854C10.3464 13.008 10.1768 13.0769 10 13.0769C9.82319 13.0769 9.65362 13.008 9.52859 12.8854C9.40357 12.7628 9.33333 12.5965 9.33333 12.4231V7.19231C9.33333 7.0189 9.40357 6.85259 9.52859 6.72997C9.65362 6.60735 9.82319 6.53846 10 6.53846C10.1768 6.53846 10.3464 6.60735 10.4714 6.72997C10.5964 6.85259 10.6667 7.0189 10.6667 7.19231Z" />
	</symbol>


	<symbol id="plus" viewBox="0 0 16 17">
		<path fill-rule="evenodd" clip-rule="evenodd"
			d="M8 15.5508C11.8941 15.5508 15.0508 12.3941 15.0508 8.5C15.0508 4.60592 11.8941 1.44915 8 1.44915C4.10592 1.44915 0.949153 4.60592 0.949153 8.5C0.949153 12.3941 4.10592 15.5508 8 15.5508ZM8 16.5C12.4183 16.5 16 12.9183 16 8.5C16 4.08172 12.4183 0.5 8 0.5C3.58172 0.5 0 4.08172 0 8.5C0 12.9183 3.58172 16.5 8 16.5Z" />
		<path
			d="M8.54237 4.16102C8.54237 3.93636 8.36025 3.75424 8.13559 3.75424H7.86441C7.63975 3.75424 7.45763 3.93636 7.45763 4.16102V7.55085C7.45763 7.77551 7.27551 7.95763 7.05085 7.95763H3.66102C3.43636 7.95763 3.25424 8.13975 3.25424 8.36441V8.63559C3.25424 8.86025 3.43636 9.04237 3.66102 9.04237H7.05085C7.27551 9.04237 7.45763 9.22449 7.45763 9.44915V12.839C7.45763 13.0636 7.63975 13.2458 7.86441 13.2458H8.13559C8.36025 13.2458 8.54237 13.0636 8.54237 12.839V9.44915C8.54237 9.22449 8.72449 9.04237 8.94915 9.04237H12.339C12.5636 9.04237 12.7458 8.86025 12.7458 8.63559V8.36441C12.7458 8.13975 12.5636 7.95763 12.339 7.95763H8.94915C8.72449 7.95763 8.54237 7.77551 8.54237 7.55085V4.16102Z" />
	</symbol>

	<symbol id="tab1" viewBox="0 0 28 28">
		<path
			d="M23.8136 1.19354H4.17868C2.53014 1.19354 1.19373 2.52995 1.19373 4.1785V23.8134C1.19373 25.4619 2.53014 26.7984 4.17868 26.7984H23.8136C25.4621 26.7984 26.7985 25.4619 26.7985 23.8134V4.1785C26.7985 2.52995 25.4621 1.19354 23.8136 1.19354Z"
			stroke-miterlimit="10" />
		<path d="M1.19385 7.29201H26.7987" stroke-miterlimit="10" />
		<path
			d="M7.33233 10.7824H5.14979C4.50278 10.7824 3.97827 11.3069 3.97827 11.9539C3.97827 12.6009 4.50278 13.1254 5.14979 13.1254H7.33233C7.97934 13.1254 8.50385 12.6009 8.50385 11.9539C8.50385 11.3069 7.97934 10.7824 7.33233 10.7824Z"
			stroke-miterlimit="10" />
		<path
			d="M15.0916 10.7824H12.9091C12.2621 10.7824 11.7375 11.3069 11.7375 11.9539C11.7375 12.6009 12.2621 13.1254 12.9091 13.1254H15.0916C15.7386 13.1254 16.2631 12.6009 16.2631 11.9539C16.2631 11.3069 15.7386 10.7824 15.0916 10.7824Z"
			stroke-miterlimit="10" />
		<path
			d="M22.8508 10.7824H20.6682C20.0212 10.7824 19.4967 11.3069 19.4967 11.9539C19.4967 12.6009 20.0212 13.1254 20.6682 13.1254H22.8508C23.4978 13.1254 24.0223 12.6009 24.0223 11.9539C24.0223 11.3069 23.4978 10.7824 22.8508 10.7824Z"
			stroke-miterlimit="10" />
		<path
			d="M7.33233 15.637H5.14979C4.50278 15.637 3.97827 16.1615 3.97827 16.8085C3.97827 17.4555 4.50278 17.98 5.14979 17.98H7.33233C7.97934 17.98 8.50385 17.4555 8.50385 16.8085C8.50385 16.1615 7.97934 15.637 7.33233 15.637Z"
			stroke-miterlimit="10" />
		<path
			d="M15.0916 15.637H12.9091C12.2621 15.637 11.7375 16.1615 11.7375 16.8085C11.7375 17.4555 12.2621 17.98 12.9091 17.98H15.0916C15.7386 17.98 16.2631 17.4555 16.2631 16.8085C16.2631 16.1615 15.7386 15.637 15.0916 15.637Z"
			stroke-miterlimit="10" />
		<path
			d="M22.8508 15.637H20.6682C20.0212 15.637 19.4967 16.1615 19.4967 16.8085C19.4967 17.4555 20.0212 17.98 20.6682 17.98H22.8508C23.4978 17.98 24.0223 17.4555 24.0223 16.8085C24.0223 16.1615 23.4978 15.637 22.8508 15.637Z"
			stroke-miterlimit="10" />
		<path
			d="M7.33233 20.4996H5.14979C4.50278 20.4996 3.97827 21.0241 3.97827 21.6711C3.97827 22.3181 4.50278 22.8426 5.14979 22.8426H7.33233C7.97934 22.8426 8.50385 22.3181 8.50385 21.6711C8.50385 21.0241 7.97934 20.4996 7.33233 20.4996Z"
			stroke-miterlimit="10" />
		<path
			d="M15.0916 20.4996H12.9091C12.2621 20.4996 11.7375 21.0241 11.7375 21.6711C11.7375 22.3181 12.2621 22.8426 12.9091 22.8426H15.0916C15.7386 22.8426 16.2631 22.3181 16.2631 21.6711C16.2631 21.0241 15.7386 20.4996 15.0916 20.4996Z"
			stroke-miterlimit="10" />
		<path
			d="M22.8508 20.4996H20.6682C20.0212 20.4996 19.4967 21.0241 19.4967 21.6711C19.4967 22.3181 20.0212 22.8426 20.6682 22.8426H22.8508C23.4978 22.8426 24.0223 22.3181 24.0223 21.6711C24.0223 21.0241 23.4978 20.4996 22.8508 20.4996Z"
			stroke-miterlimit="10" />
	</symbol>


	<symbol id="tab2" viewBox="0 0 29 28">
		<path
			d="M13.9999 1.26558C6.97077 1.26558 1.27368 6.96267 1.27368 13.9918C1.27368 17.5063 2.70197 20.6758 5.00488 22.9787"
			stroke-miterlimit="10" />
		<path
			d="M0.83252 23.1633L0.904736 22.3609L4.84456 22.7059L4.90072 18.7501L5.70313 18.7581L5.63091 23.5805L0.83252 23.1633Z" />
		<path
			d="M14.0002 26.7259C21.0293 26.7259 26.7264 21.0288 26.7264 13.9997C26.7264 11.1031 25.7555 8.44709 24.1266 6.31268"
			stroke-miterlimit="10" />
		<path
			d="M28.2829 6.68973L28.1064 7.47609L24.2468 6.60949L23.6611 10.5172L22.8667 10.3968L23.5808 5.63055L28.2829 6.68973Z" />
	</symbol>

	<symbol id="tab3" viewBox="0 0 26 26">
		<path d="M3.49976 22.4925L22.4927 3.49954" stroke-miterlimit="10" />
		<path
			d="M6.07541 10.7132C8.63686 10.7132 10.7133 8.63676 10.7133 6.07531C10.7133 3.51386 8.63686 1.43739 6.07541 1.43739C3.51397 1.43739 1.4375 3.51386 1.4375 6.07531C1.4375 8.63676 3.51397 10.7132 6.07541 10.7132Z"
			stroke-miterlimit="10" />
		<path
			d="M19.917 24.5628C22.4784 24.5628 24.5549 22.4863 24.5549 19.9249C24.5549 17.3634 22.4784 15.2869 19.917 15.2869C17.3555 15.2869 15.2791 17.3634 15.2791 19.9249C15.2791 22.4863 17.3555 24.5628 19.917 24.5628Z"
			stroke-miterlimit="10" />
	</symbol>


	<symbol id="tab4" viewBox="0 0 22 22">
		<path
			d="M12.5805 8.72903L17.8604 6.67487L1.08203 1.08209L6.67481 17.8604L8.72897 12.5726L17.074 20.9176L18.9918 18.9918L20.9175 17.0741L12.5805 8.72903Z"
			stroke-miterlimit="10" />
	</symbol>

	<symbol id="figure" viewBox="0 0 17 9">
		<path
			d="M0.814268 1.91467C0.158013 1.29296 0.59802 0.188721 1.50201 0.188721H15.4828C16.3868 0.188721 16.8268 1.29296 16.1706 1.91467L9.18017 8.53717C8.79448 8.90257 8.19038 8.90257 7.80468 8.53717L0.814268 1.91467Z" />
	</symbol>


	<symbol id="view" viewBox="0 0 16 13">
		<path
			d="M8 8.68182C9.17824 8.68182 10.1334 7.70499 10.1334 6.5C10.1334 5.29502 9.17824 4.31818 8 4.31818C6.82176 4.31818 5.8666 5.29502 5.8666 6.5C5.8666 7.70499 6.82176 8.68182 8 8.68182Z" />
		<path
			d="M15.9682 6.31455C15.3409 4.65508 14.2519 3.21997 12.8358 2.18659C11.4196 1.15321 9.73844 0.566858 8 0.5C6.26156 0.566858 4.58038 1.15321 3.16424 2.18659C1.7481 3.21997 0.659078 4.65508 0.031774 6.31455C-0.0105913 6.43439 -0.0105913 6.56561 0.031774 6.68545C0.659078 8.34492 1.7481 9.78003 3.16424 10.8134C4.58038 11.8468 6.26156 12.4331 8 12.5C9.73844 12.4331 11.4196 11.8468 12.8358 10.8134C14.2519 9.78003 15.3409 8.34492 15.9682 6.68545C16.0106 6.56561 16.0106 6.43439 15.9682 6.31455ZM8 10.0455C7.31434 10.0455 6.64408 9.83752 6.07397 9.44794C5.50386 9.05836 5.05952 8.50463 4.79713 7.85679C4.53474 7.20894 4.46608 6.49607 4.59985 5.80832C4.73361 5.12057 5.06379 4.48883 5.54863 3.99299C6.03346 3.49714 6.65118 3.15947 7.32367 3.02267C7.99615 2.88587 8.6932 2.95608 9.32667 3.22443C9.96014 3.49277 10.5016 3.9472 10.8825 4.53025C11.2634 5.1133 11.4668 5.79878 11.4668 6.5C11.4654 7.43987 11.0997 8.34083 10.4498 9.00542C9.79998 9.67001 8.91901 10.044 8 10.0455Z" />
	</symbol>

	<symbol id="arrow-top" viewBox="0 0 12 12">
		<path
			d="M11.1924 1.9038C11.1924 1.35152 10.7447 0.903803 10.1924 0.903804L1.19239 0.903803C0.640103 0.903803 0.192388 1.35152 0.192388 1.9038C0.192388 2.45609 0.640103 2.9038 1.19239 2.9038L9.19239 2.9038L9.19239 10.9038C9.19239 11.4561 9.6401 11.9038 10.1924 11.9038C10.7447 11.9038 11.1924 11.4561 11.1924 10.9038L11.1924 1.9038ZM1.70711 11.8033L10.8995 2.61091L9.48528 1.1967L0.292893 10.3891L1.70711 11.8033Z" />
	</symbol>


	<symbol id="file" viewBox="0 0 59 75">
		<path
			d="M51.6158 1H7.38418C3.8583 1 1 3.61943 1 6.85065V67.3493C1 70.5806 3.8583 73.2 7.38418 73.2H51.6158C55.1417 73.2 58 70.5806 58 67.3493V6.85065C58 3.61943 55.1417 1 51.6158 1Z"
			stroke-width="2" stroke-miterlimit="10" />
		<path d="M14.2998 13.9771H46.3718" stroke-width="2" stroke-miterlimit="10" />
		<path d="M14.2998 25.7382H46.3718" stroke-width="2" stroke-miterlimit="10" />
		<path d="M14.2998 37.5182H46.3718" stroke-width="2" stroke-miterlimit="10" />
		<path d="M14.2998 49.2792H46.3718" stroke-width="2" stroke-miterlimit="10" />
		<path d="M14.2998 61.0402H46.3718" stroke-width="2" stroke-miterlimit="10" />
	</symbol>


	<symbol id="print" viewBox="0 0 23 22">
		<path
			d="M18.4 4.88889H4.6V0H18.4V4.88889ZM18.4 11.6111C18.7258 11.6111 18.9991 11.4938 19.2199 11.2591C19.4407 11.0244 19.5508 10.7344 19.55 10.3889C19.55 10.0426 19.4396 9.75211 19.2188 9.51744C18.998 9.28278 18.7251 9.16585 18.4 9.16667C18.0742 9.16667 17.8008 9.284 17.58 9.51867C17.3592 9.75333 17.2492 10.0434 17.25 10.3889C17.25 10.7352 17.3604 11.0257 17.5812 11.2603C17.802 11.495 18.0749 11.6119 18.4 11.6111ZM16.1 19.5556V14.6667H6.9V19.5556H16.1ZM18.4 22H4.6V17.1111H0V9.77778C0 8.73889 0.335417 7.86785 1.00625 7.16467C1.67708 6.46148 2.49167 6.1103 3.45 6.11111H19.55C20.5275 6.11111 21.3471 6.4627 22.0087 7.16589C22.6703 7.86907 23.0008 8.7397 23 9.77778V17.1111H18.4V22Z" />
	</symbol>

	<symbol id="schare" viewBox="0 0 23 18">
		<path d="M23 8.4L14.0556 0V4.8C5.11111 6 1.27778 12 0 18C3.19444 13.8 7.66667 11.88 14.0556 11.88V16.8L23 8.4Z" />
	</symbol>

	<symbol id="mail" viewBox="0 0 25 20">
		<path d="M25 0H0V20H25V0ZM22.5 5L12.5 11.25L2.5 5V2.5L12.5 8.75L22.5 2.5V5Z" />
	</symbol>

	<symbol id="filter" viewBox="0 0 16 19">
		<path
			d="M5 2.00245C4.73478 2.00245 4.48043 2.10781 4.29289 2.29534C4.10536 2.48288 4 2.73723 4 3.00245C4 3.26767 4.10536 3.52202 4.29289 3.70956C4.48043 3.89709 4.73478 4.00245 5 4.00245C5.26522 4.00245 5.51957 3.89709 5.70711 3.70956C5.89464 3.52202 6 3.26767 6 3.00245C6 2.73723 5.89464 2.48288 5.70711 2.29534C5.51957 2.10781 5.26522 2.00245 5 2.00245ZM2.17 2.00245C2.3766 1.41692 2.75974 0.909884 3.2666 0.55124C3.77346 0.192596 4.37909 0 5 0C5.62091 0 6.22654 0.192596 6.7334 0.55124C7.24026 0.909884 7.6234 1.41692 7.83 2.00245H15C15.2652 2.00245 15.5196 2.10781 15.7071 2.29534C15.8946 2.48288 16 2.73723 16 3.00245C16 3.26767 15.8946 3.52202 15.7071 3.70956C15.5196 3.89709 15.2652 4.00245 15 4.00245H7.83C7.6234 4.58798 7.24026 5.09502 6.7334 5.45366C6.22654 5.81231 5.62091 6.0049 5 6.0049C4.37909 6.0049 3.77346 5.81231 3.2666 5.45366C2.75974 5.09502 2.3766 4.58798 2.17 4.00245H1C0.734784 4.00245 0.48043 3.89709 0.292893 3.70956C0.105357 3.52202 0 3.26767 0 3.00245C0 2.73723 0.105357 2.48288 0.292893 2.29534C0.48043 2.10781 0.734784 2.00245 1 2.00245H2.17ZM11 8.00245C10.7348 8.00245 10.4804 8.10781 10.2929 8.29534C10.1054 8.48288 10 8.73723 10 9.00245C10 9.26767 10.1054 9.52202 10.2929 9.70956C10.4804 9.89709 10.7348 10.0025 11 10.0025C11.2652 10.0025 11.5196 9.89709 11.7071 9.70956C11.8946 9.52202 12 9.26767 12 9.00245C12 8.73723 11.8946 8.48288 11.7071 8.29534C11.5196 8.10781 11.2652 8.00245 11 8.00245ZM8.17 8.00245C8.3766 7.41692 8.75974 6.90988 9.2666 6.55124C9.77346 6.1926 10.3791 6 11 6C11.6209 6 12.2265 6.1926 12.7334 6.55124C13.2403 6.90988 13.6234 7.41692 13.83 8.00245H15C15.2652 8.00245 15.5196 8.10781 15.7071 8.29534C15.8946 8.48288 16 8.73723 16 9.00245C16 9.26767 15.8946 9.52202 15.7071 9.70956C15.5196 9.89709 15.2652 10.0025 15 10.0025H13.83C13.6234 10.588 13.2403 11.095 12.7334 11.4537C12.2265 11.8123 11.6209 12.0049 11 12.0049C10.3791 12.0049 9.77346 11.8123 9.2666 11.4537C8.75974 11.095 8.3766 10.588 8.17 10.0025H1C0.734784 10.0025 0.48043 9.89709 0.292893 9.70956C0.105357 9.52202 0 9.26767 0 9.00245C0 8.73723 0.105357 8.48288 0.292893 8.29534C0.48043 8.10781 0.734784 8.00245 1 8.00245H8.17ZM5 14.0025C4.73478 14.0025 4.48043 14.1078 4.29289 14.2953C4.10536 14.4829 4 14.7372 4 15.0025C4 15.2677 4.10536 15.522 4.29289 15.7096C4.48043 15.8971 4.73478 16.0025 5 16.0025C5.26522 16.0025 5.51957 15.8971 5.70711 15.7096C5.89464 15.522 6 15.2677 6 15.0025C6 14.7372 5.89464 14.4829 5.70711 14.2953C5.51957 14.1078 5.26522 14.0025 5 14.0025ZM2.17 14.0025C2.3766 13.4169 2.75974 12.9099 3.2666 12.5512C3.77346 12.1926 4.37909 12 5 12C5.62091 12 6.22654 12.1926 6.7334 12.5512C7.24026 12.9099 7.6234 13.4169 7.83 14.0025H15C15.2652 14.0025 15.5196 14.1078 15.7071 14.2953C15.8946 14.4829 16 14.7372 16 15.0025C16 15.2677 15.8946 15.522 15.7071 15.7096C15.5196 15.8971 15.2652 16.0025 15 16.0025H7.83C7.6234 16.588 7.24026 17.095 6.7334 17.4537C6.22654 17.8123 5.62091 18.0049 5 18.0049C4.37909 18.0049 3.77346 17.8123 3.2666 17.4537C2.75974 17.095 2.3766 16.588 2.17 16.0025H1C0.734784 16.0025 0.48043 15.8971 0.292893 15.7096C0.105357 15.522 0 15.2677 0 15.0025C0 14.7372 0.105357 14.4829 0.292893 14.2953C0.48043 14.1078 0.734784 14.0025 1 14.0025H2.17Z" />
	</symbol>

</svg>