<svg display="none" xmlns="http://www.w3.org/2000/svg">

	<symbol id="info" viewBox="0 0 31 31">
		<path fill-rule="evenodd" clip-rule="evenodd"
			d="M15.5 29.7843C23.389 29.7843 29.7843 23.389 29.7843 15.5C29.7843 7.61099 23.389 1.21569 15.5 1.21569C7.61099 1.21569 1.21569 7.61099 1.21569 15.5C1.21569 23.389 7.61099 29.7843 15.5 29.7843ZM15.5 31C24.0604 31 31 24.0604 31 15.5C31 6.93959 24.0604 0 15.5 0C6.93959 0 0 6.93959 0 15.5C0 24.0604 6.93959 31 15.5 31Z"/>
		<path
			d="M14.9384 5.47059H16.6306L16.3388 20.0296H15.2301L14.9384 5.47059ZM15.7845 26.0108C15.4538 26.0108 15.1718 25.8941 14.9384 25.6607C14.7049 25.4273 14.5882 25.1453 14.5882 24.8146C14.5882 24.4839 14.7049 24.2019 14.9384 23.9685C15.1718 23.7351 15.4538 23.6184 15.7845 23.6184C16.1346 23.6184 16.4264 23.7351 16.6598 23.9685C16.8932 24.2019 17.0099 24.4839 17.0099 24.8146C17.0099 25.1453 16.8932 25.4273 16.6598 25.6607C16.4264 25.8941 16.1346 26.0108 15.7845 26.0108Z"/>
	</symbol>


</svg>