<svg display="none" xmlns="http://www.w3.org/2000/svg">

	<symbol id="info" viewBox="0 0 31 31">
		<path fill-rule="evenodd" clip-rule="evenodd"
			d="M15.5 29.7843C23.389 29.7843 29.7843 23.389 29.7843 15.5C29.7843 7.61099 23.389 1.21569 15.5 1.21569C7.61099 1.21569 1.21569 7.61099 1.21569 15.5C1.21569 23.389 7.61099 29.7843 15.5 29.7843ZM15.5 31C24.0604 31 31 24.0604 31 15.5C31 6.93959 24.0604 0 15.5 0C6.93959 0 0 6.93959 0 15.5C0 24.0604 6.93959 31 15.5 31Z" />
		<path
			d="M14.9384 5.47059H16.6306L16.3388 20.0296H15.2301L14.9384 5.47059ZM15.7845 26.0108C15.4538 26.0108 15.1718 25.8941 14.9384 25.6607C14.7049 25.4273 14.5882 25.1453 14.5882 24.8146C14.5882 24.4839 14.7049 24.2019 14.9384 23.9685C15.1718 23.7351 15.4538 23.6184 15.7845 23.6184C16.1346 23.6184 16.4264 23.7351 16.6598 23.9685C16.8932 24.2019 17.0099 24.4839 17.0099 24.8146C17.0099 25.1453 16.8932 25.4273 16.6598 25.6607C16.4264 25.8941 16.1346 26.0108 15.7845 26.0108Z" />
	</symbol>


	<symbol id="location" viewBox="0 0 13 17">
		<path fill-rule="evenodd" clip-rule="evenodd"
			d="M6.5 17C6.5 17 13 10.4166 13 6.71053C13 3.00441 10.0899 0 6.5 0C2.91015 0 0 3.00441 0 6.71053C0 10.4166 6.5 17 6.5 17ZM6.5 10C8.433 10 10 8.433 10 6.5C10 4.567 8.433 3 6.5 3C4.567 3 3 4.567 3 6.5C3 8.433 4.567 10 6.5 10Z" />
	</symbol>

	<symbol id="heart" viewBox="0 0 22 19">
		<path
			d="M19.3714 12.0449L19.3662 12.0503L19.3611 12.0559C18.4928 13.016 16.5792 14.5206 14.8116 15.8409C13.936 16.4949 13.1094 17.0941 12.4857 17.5459L12.4368 17.5813C12.1471 17.7911 11.9021 17.9685 11.7208 18.1019C11.6253 18.1722 11.5449 18.2321 11.4838 18.279C11.4592 18.2979 11.4277 18.3221 11.3967 18.3478C11.1764 18.4607 11.0747 18.5 11 18.5C10.9254 18.5 10.8239 18.4608 10.6043 18.3483C10.5746 18.3234 10.5443 18.2996 10.5199 18.2805C10.459 18.2329 10.3788 18.1719 10.2833 18.1001C10.0918 17.9562 9.82956 17.7622 9.51819 17.5321L9.43363 17.4696C8.82038 17.0164 8.02795 16.4307 7.19053 15.7982C5.42377 14.4638 3.50271 12.9545 2.62857 12.0449C0.717851 10.0565 0.5 7.85243 0.5 6.37267C0.5 3.09558 3.12389 0.5 6.12371 0.5C7.9839 0.5 9.6508 1.46694 10.7012 2.99724L11.1134 3.59783L11.5256 2.99724C12.5825 1.45743 14.2532 0.5 15.8763 0.5C18.9836 0.5 21.5 3.08947 21.5 6.37267C21.5 7.85243 21.2822 10.0565 19.3714 12.0449Z" />
	</symbol>
	<symbol id="comparison" viewBox="0 0 26 21">
		<path fill-rule="evenodd" clip-rule="evenodd"
			d="M3.18182 20C1.97683 20 1 19.0548 1 17.8889L1 11.5556C1 10.3896 1.97683 9.44444 3.18182 9.44444C4.3868 9.44444 5.36364 10.3896 5.36364 11.5556L5.36364 17.8889C5.36364 19.0548 4.3868 20 3.18182 20Z" />
		<path fill-rule="evenodd" clip-rule="evenodd"
			d="M13 20C11.795 20 10.8182 19.0548 10.8182 17.8889L10.8182 3.11111C10.8182 1.94518 11.795 1 13 1C14.205 1 15.1818 1.94518 15.1818 3.11111L15.1818 17.8889C15.1818 19.0548 14.205 20 13 20Z" />
		<path fill-rule="evenodd" clip-rule="evenodd"
			d="M22.8182 20C21.6132 20 20.6364 19.0548 20.6364 17.8889V7.33333C20.6364 6.1674 21.6132 5.22222 22.8182 5.22222C24.0232 5.22222 25 6.1674 25 7.33333V17.8889C25 19.0548 24.0232 20 22.8182 20Z" />
	</symbol>

	<symbol id="arrow-right" viewBox="0 0 27 15">
		<path
			d="M26.7071 8.2071C27.0976 7.81658 27.0976 7.18342 26.7071 6.79289L20.3431 0.42893C19.9526 0.0384061 19.3195 0.0384061 18.9289 0.428931C18.5384 0.819455 18.5384 1.45262 18.9289 1.84314L24.5858 7.5L18.9289 13.1569C18.5384 13.5474 18.5384 14.1805 18.9289 14.5711C19.3195 14.9616 19.9526 14.9616 20.3431 14.5711L26.7071 8.2071ZM8.74228e-08 8.5L26 8.5L26 6.5L-8.74228e-08 6.5L8.74228e-08 8.5Z" />
	</symbol>

	<symbol id="burger" viewBox="0 0 30 25">
		<path
			d="M0 2.5C0 1.11929 1.11929 0 2.5 0H27.5C28.8807 0 30 1.11929 30 2.5C30 3.88071 28.8807 5 27.5 5H2.5C1.11929 5 0 3.88071 0 2.5Z" />
		<path
			d="M0 12.5C0 11.1193 1.11929 10 2.5 10H27.5C28.8807 10 30 11.1193 30 12.5C30 13.8807 28.8807 15 27.5 15H2.5C1.11929 15 0 13.8807 0 12.5Z" />
		<path
			d="M0 22.5C0 21.1193 1.11929 20 2.5 20H27.5C28.8807 20 30 21.1193 30 22.5C30 23.8807 28.8807 25 27.5 25H2.5C1.11929 25 0 23.8807 0 22.5Z" />
	</symbol>

	<symbol id="next" viewBox="0 0 12 22">
		<path d="M0.5 21.5L10.5 11L0.499999 0.500001" />
	</symbol>


</svg>