<svg width="34" height="28" viewBox="0 0 34 28" fill="none" xmlns="http://www.w3.org/2000/svg">
<path d="M32.5048 12.0483C31.4642 18.5513 30.3334 25.6603 30.3334 25.6603C30.3334 25.6603 30.1589 27.655 28.6823 28C27.1002 27.9758 25.5712 27.427 24.3365 26.4402C23.9876 26.1793 17.8162 22.2798 15.5576 20.3721C15.3272 20.217 15.14 20.0062 15.0135 19.7594C14.8869 19.5126 14.8251 19.2378 14.8338 18.9608C14.8425 18.6837 14.9215 18.4134 15.0633 18.175C15.2051 17.9366 15.4052 17.7379 15.6448 17.5975C18.7406 14.7652 21.7827 11.8751 24.7695 8.9287C25.8131 7.88784 26.8567 5.46119 22.5109 8.40977C16.3395 12.6572 10.2554 16.6436 10.2554 16.6436C9.62878 16.9256 8.95158 17.0786 8.26431 17.0935C7.57703 17.1085 6.89379 16.985 6.25544 16.7306C3.64795 15.9507 0.607382 14.9099 0.607382 14.9099C0.607382 14.9099 -1.47981 13.611 2.08406 12.2102C2.08406 12.2102 17.1215 6.05511 22.3365 3.88941C24.3365 3.02254 31.1153 0.247928 31.1153 0.247928C31.1153 0.247928 34.2461 -0.966902 33.9845 1.98168C33.8972 3.20851 33.2025 7.45591 32.5048 12.0483Z" fill="#148BC6"/>
</svg>
