<svg width="39" height="23" viewBox="0 0 39 23" fill="none" xmlns="http://www.w3.org/2000/svg">
<path d="M32.363 13.1889C31.7325 12.3839 31.9129 12.0257 32.363 11.3061C32.3711 11.2979 37.5762 4.02664 38.1124 1.56071L38.1157 1.55907C38.3822 0.660428 38.1157 0 36.827 0H32.5629C31.4773 0 30.9768 0.566786 30.7087 1.20093C30.7087 1.20093 28.5376 6.45479 25.4663 9.86043C24.475 10.8445 24.0167 11.1599 23.4756 11.1599C23.2091 11.1599 22.7947 10.8445 22.7947 9.94586V1.55907C22.7947 0.481357 22.4908 0 21.5921 0H14.8871C14.2062 0 13.8016 0.502714 13.8016 0.970929C13.8016 1.99279 15.3373 2.22771 15.4965 5.10271V11.3406C15.4965 12.7075 15.2512 12.9589 14.7068 12.9589C13.2572 12.9589 9.73896 7.68364 7.65402 1.64614C7.23313 0.474785 6.82199 0.00164274 5.72832 0.00164274H1.46255C0.245383 0.00164274 0 0.568428 0 1.20257C0 2.323 1.44955 7.89393 6.74073 15.2539C10.2671 20.2778 15.2333 23 19.7509 23C22.4664 23 22.7979 22.3954 22.7979 21.3555C22.7979 16.5551 22.5525 16.1016 23.9127 16.1016C24.5432 16.1016 25.6288 16.4171 28.1638 18.8403C31.0613 21.7136 31.5375 23 33.1593 23H37.4234C38.639 23 39.2549 22.3954 38.9006 21.2027C38.0897 18.6941 32.61 13.5339 32.363 13.1889Z" fill="#0077FF"/>
</svg>
